<?xml version="1.0" encoding="UTF-8"?>
<!-- Generator: visioncortex VTracer 0.6.3 -->
<svg version="1.1" xmlns="http://www.w3.org/2000/svg" width="989" height="1280">
<path d="M0 0 C1.37 0 1.37 0 2.76 0.01 C3.69 0.01 4.62 0 5.57 0 C7.54 0 9.51 0 11.47 0.01 C14.5 0.01 17.52 0.01 20.54 0 C22.45 0 24.35 0 26.26 0.01 C27.17 0 28.08 0 29.02 0 C35.39 0.02 35.39 0.02 36.51 1.14 C38.7 1.56 40.89 1.99 43.08 2.41 C47.5 3.35 51.88 4.45 56.26 5.58 C57.07 5.78 57.89 5.99 58.73 6.2 C63.32 7.4 67.31 8.87 71.51 11.14 C73.12 11.79 73.12 11.79 74.76 12.45 C78.72 14.12 82.29 16.34 85.95 18.59 C88.37 20.06 90.83 21.42 93.32 22.76 C97.78 25.22 101.39 27.99 104.95 31.64 C107.48 34.27 107.48 34.27 110.82 36.33 C111.71 36.92 112.6 37.52 113.51 38.14 C113.51 38.8 113.51 39.46 113.51 40.14 C114.09 40.4 114.67 40.65 115.27 40.92 C117.69 42.24 119.33 43.69 121.26 45.64 C121.87 46.25 122.49 46.86 123.12 47.48 C124.51 49.14 124.51 49.14 124.51 51.14 C125.17 51.47 125.83 51.8 126.51 52.14 C127.49 53.31 128.42 54.53 129.32 55.76 C129.85 56.48 130.38 57.21 130.92 57.95 C131.45 58.67 131.97 59.39 132.51 60.14 C132.97 60.77 133.43 61.4 133.91 62.05 C144.05 76.03 153.2 92.9 156.11 110.01 C156.49 112.32 156.49 112.32 157.57 115.14 C158.71 118.78 158.98 122.27 159.26 126.06 C159.29 128.13 159.29 128.13 160.51 129.14 C160.61 132.08 160.65 135.01 160.64 137.95 C160.64 139.28 160.64 139.28 160.64 140.63 C160.65 142.5 160.64 144.38 160.64 146.25 C160.63 149.13 160.64 152 160.65 154.88 C160.64 156.7 160.64 158.51 160.64 160.33 C160.64 161.19 160.65 162.06 160.65 162.95 C160.62 169.02 160.62 169.02 159.51 170.14 C159.18 172.47 158.9 174.8 158.63 177.14 C157.9 183.13 156.62 188.5 154.51 194.14 C154.2 195.29 153.89 196.45 153.57 197.64 C152.24 202.02 150.47 206.01 148.51 210.14 C148.09 211.03 148.09 211.03 147.66 211.94 C143.99 219.66 140.27 227.05 135.15 233.93 C133.43 236.19 133.43 236.19 131.75 238.92 C128.96 242.93 125.79 246.41 122.45 249.95 C121.78 250.66 121.12 251.36 120.44 252.09 C115.15 257.63 109.62 262.5 103.51 267.14 C101.84 268.47 100.17 269.8 98.51 271.14 C105.48 274.76 105.48 274.76 112.76 277.7 C116.41 278.99 119.33 280.92 122.51 283.14 C123.5 283.47 124.49 283.8 125.51 284.14 C125.51 284.8 125.51 285.46 125.51 286.14 C126.18 286.2 126.85 286.27 127.54 286.34 C131.59 287.43 134.53 289.57 137.95 291.95 C138.59 292.39 139.23 292.83 139.89 293.28 C141.16 294.15 142.43 295.02 143.69 295.89 C145.41 297.07 147.14 298.22 148.88 299.37 C151.08 300.85 152.66 302.29 154.51 304.14 C155.38 304.63 156.24 305.13 157.13 305.64 C159.51 307.14 159.51 307.14 160.51 310.14 C161.5 310.14 162.49 310.14 163.51 310.14 C163.51 310.8 163.51 311.46 163.51 312.14 C164.34 312.48 164.34 312.48 165.2 312.83 C168.17 314.51 170.15 316.67 172.51 319.14 C175.05 321.75 177.55 324.17 180.38 326.45 C184.23 329.59 187.32 333.35 190.51 337.14 C191.02 337.73 191.53 338.31 192.06 338.92 C195.51 342.9 195.51 342.9 195.51 345.14 C196.17 345.14 196.83 345.14 197.51 345.14 C197.51 345.8 197.51 346.46 197.51 347.14 C198.5 347.47 199.49 347.8 200.51 348.14 C201.54 349.78 202.54 351.46 203.51 353.14 C204.35 354.11 205.2 355.08 206.07 356.08 C208.49 359.11 209.54 361.42 210.51 365.14 C211.17 365.14 211.83 365.14 212.51 365.14 C212.82 365.78 213.14 366.42 213.46 367.08 C216.35 372.93 216.35 372.93 219.51 378.64 C221.58 382.19 223.41 385.85 225.22 389.54 C226.06 391.23 226.92 392.91 227.8 394.58 C230.67 400.07 232.74 405.55 234.6 411.46 C235.48 414.28 235.48 414.28 237.13 417.26 C238.78 420.72 239.37 424 240.04 427.75 C240.49 430.3 240.49 430.3 241.57 433.33 C242.65 436.57 243.04 439.76 243.51 443.14 C243.84 443.47 244.17 443.8 244.51 444.14 C244.83 446.46 245.02 448.78 245.23 451.11 C245.3 453.13 245.3 453.13 246.51 454.14 C247.65 461.39 247.85 468.65 248.11 475.98 C248.15 476.88 248.19 477.79 248.23 478.73 C248.26 479.55 248.29 480.38 248.32 481.22 C248.31 483.15 248.31 483.15 249.51 484.14 C249.58 485.66 249.59 487.18 249.57 488.7 C249.56 489.53 249.55 490.35 249.54 491.21 C249.53 492.16 249.53 492.16 249.51 493.14 C243.69 493.16 237.87 493.18 232.05 493.19 C230.06 493.2 228.08 493.21 226.1 493.21 C223.26 493.23 220.42 493.23 217.58 493.24 C216.24 493.24 216.24 493.24 214.87 493.25 C212.75 493.25 210.63 493.2 208.51 493.14 C206.88 491.51 207.3 489.64 207.23 487.4 C207.19 486.41 207.15 485.43 207.11 484.41 C207.08 483.37 207.04 482.33 207.01 481.26 C207.71 468.42 207.71 468.42 204.51 457.14 C204.18 455.31 203.9 453.48 203.63 451.64 C202.9 447.05 201.92 442.83 200.32 438.47 C199.54 436.22 198.88 433.97 198.24 431.68 C196.34 425.29 193.79 419.21 191.2 413.08 C190.74 411.96 190.27 410.84 189.8 409.68 C187.28 403.71 184.58 398.28 180.8 392.99 C176.51 386.86 176.51 386.86 176.51 383.14 C175.52 382.81 174.53 382.48 173.51 382.14 C171.32 378.99 169.84 375.73 168.51 372.14 C167.85 372.14 167.19 372.14 166.51 372.14 C165.18 370.35 165.18 370.35 163.7 367.95 C160.71 363.32 157.54 359.69 153.13 356.33 C150.16 353.85 147.81 351.11 145.35 348.14 C141.05 343.47 135.6 339.99 130.47 336.29 C128.55 334.89 126.63 333.48 124.74 332.05 C118.58 327.45 112.31 323.69 105.51 320.14 C103.61 319.08 101.72 318.02 99.82 316.95 C95.48 314.58 91.18 312.73 86.51 311.14 C85.22 310.66 83.92 310.19 82.63 309.7 C81.64 309.33 81.64 309.33 80.63 308.96 C79.14 308.38 77.67 307.77 76.2 307.13 C70.47 304.66 65.07 303.38 58.88 302.53 C56.51 302.14 56.51 302.14 55.51 301.14 C52.86 300.76 50.23 300.43 47.57 300.14 C39.77 299.27 39.77 299.27 37.51 298.14 C36.08 298.04 34.65 298 33.22 297.99 C32.33 297.99 31.44 297.98 30.53 297.97 C29.08 297.97 29.08 297.97 27.6 297.97 C26.61 297.97 25.61 297.96 24.59 297.96 C22.48 297.96 20.37 297.95 18.25 297.95 C15.05 297.95 11.85 297.93 8.64 297.91 C6.59 297.91 4.53 297.91 2.48 297.91 C1.53 297.9 0.58 297.89 -0.4 297.89 C-5.88 297.91 -10.93 298.44 -16.29 299.67 C-18.41 300.12 -20.46 300.37 -22.62 300.58 C-26.31 301.11 -29.15 302.03 -32.53 303.52 C-34.49 304.14 -34.49 304.14 -36.93 304.12 C-39.83 304.14 -41.65 304.81 -44.3 305.95 C-47.49 307.3 -50.67 308.59 -53.93 309.76 C-57.52 311 -57.52 311 -60.49 313.14 C-61.34 313.41 -62.18 313.68 -63.05 313.95 C-70.53 316.53 -79.84 320.49 -85.49 326.14 C-86.82 326.82 -88.15 327.49 -89.49 328.14 C-103.24 336.63 -115.02 347.39 -126.2 358.97 C-127.59 360.4 -129.04 361.77 -130.49 363.14 C-131.15 363.14 -131.81 363.14 -132.49 363.14 C-132.83 364.19 -132.83 364.19 -133.18 365.26 C-134.45 368.05 -135.96 370 -137.95 372.3 C-147.76 383.99 -155.2 397.14 -161.83 410.8 C-163.49 414.14 -163.49 414.14 -165.49 417.14 C-166.19 419.46 -166.86 421.8 -167.49 424.14 C-168.35 426.91 -169.27 429.61 -170.4 432.28 C-174.94 442.98 -176.76 453.81 -177.85 465.31 C-178.4 471.04 -178.4 471.04 -179.49 472.14 C-179.65 473.7 -179.74 475.26 -179.81 476.83 C-179.85 477.68 -179.88 478.53 -179.92 479.41 C-179.97 480.49 -180.01 481.58 -180.05 482.7 C-180.2 486.15 -180.34 489.59 -180.49 493.14 C-193.69 493.47 -206.89 493.8 -220.49 494.14 C-220.51 489.54 -220.53 484.94 -220.55 480.2 C-220.56 478.75 -220.57 477.3 -220.58 475.8 C-220.58 474.66 -220.59 473.53 -220.59 472.36 C-220.59 471.19 -220.6 470.03 -220.6 468.82 C-220.49 466.14 -220.49 466.14 -219.49 465.14 C-219.28 463.25 -219.07 461.36 -218.9 459.47 C-217.42 443.3 -212.88 428.39 -207.49 413.14 C-207.09 412 -206.69 410.85 -206.28 409.67 C-203.27 401.47 -199.44 393.78 -195.45 386.02 C-194.06 383.29 -192.75 380.53 -191.43 377.76 C-189.08 373.05 -186.33 368.85 -183.22 364.6 C-180.88 361.26 -178.91 357.74 -176.95 354.17 C-175.32 351.9 -174 351.26 -171.49 350.14 C-171.35 349.56 -171.2 348.98 -171.05 348.39 C-170.19 344.94 -167.81 342.73 -165.49 340.14 C-165.02 339.58 -164.54 339.03 -164.05 338.45 C-158.93 332.47 -153.43 326.9 -147.87 321.33 C-146.93 320.38 -145.99 319.43 -145.05 318.48 C-144.15 317.58 -143.25 316.67 -142.33 315.74 C-141.11 314.52 -141.11 314.52 -139.88 313.28 C-137.53 311.18 -135.22 309.69 -132.49 308.14 C-130.74 306.73 -129.01 305.29 -127.3 303.83 C-114.42 293.14 -114.42 293.14 -109.49 293.14 C-109.16 292.15 -108.83 291.16 -108.49 290.14 C-106.7 289.03 -106.7 289.03 -104.3 287.95 C-99.87 285.86 -95.65 283.51 -91.43 281.01 C-86.88 278.35 -82.46 276.12 -77.36 274.71 C-75.26 274.07 -73.42 273.16 -71.49 272.14 C-71.39 269.93 -71.39 269.93 -72.49 267.14 C-74.37 266.08 -74.37 266.08 -76.49 265.14 C-77.61 264.28 -78.69 263.38 -79.74 262.45 C-80.34 261.92 -80.94 261.39 -81.56 260.85 C-82.2 260.29 -82.83 259.72 -83.49 259.14 C-84.18 258.55 -84.87 257.97 -85.58 257.37 C-94.66 249.62 -94.66 249.62 -96.49 244.14 C-97.39 243.74 -97.39 243.74 -98.3 243.33 C-101.43 241.63 -102.61 239.11 -104.49 236.14 C-105.3 235.33 -105.3 235.33 -106.12 234.51 C-107.78 232.85 -108.49 231.27 -109.49 229.14 C-111.7 224.4 -111.7 224.4 -115.49 221.14 C-115.85 219.81 -116.18 218.48 -116.49 217.14 C-117.19 215.89 -117.92 214.66 -118.68 213.45 C-121.23 208.99 -122.98 204.41 -124.68 199.58 C-124.93 198.87 -125.18 198.16 -125.44 197.43 C-127.05 192.72 -128.32 187.98 -129.49 183.14 C-129.84 182 -130.19 180.87 -130.55 179.7 C-131.5 176.09 -131.94 172.67 -132.25 168.96 C-132.31 167.12 -132.31 167.12 -133.49 166.14 C-133.62 163.76 -133.68 161.41 -133.69 159.03 C-133.7 158.3 -133.71 157.58 -133.71 156.83 C-133.72 155.29 -133.73 153.74 -133.73 152.2 C-133.74 149.87 -133.77 147.55 -133.8 145.23 C-133.87 136.37 -132.99 128.7 -130.49 120.14 C-130.12 117.92 -129.77 115.69 -129.49 113.45 C-128.39 105.83 -126.47 99.72 -122.49 93.14 C-122.25 92.15 -122 91.16 -121.75 90.14 C-120.32 84.92 -117.52 80.39 -114.87 75.7 C-114.35 74.78 -113.83 73.86 -113.3 72.91 C-112.04 70.65 -110.77 68.39 -109.49 66.14 C-108.83 66.14 -108.17 66.14 -107.49 66.14 C-107.22 65.4 -106.96 64.66 -106.68 63.9 C-101.99 53.01 -91.36 43.73 -82.8 35.76 C-82.27 35.26 -81.73 34.76 -81.18 34.25 C-77.82 31.17 -74.35 28.59 -70.49 26.14 C-69.54 25.5 -68.59 24.86 -67.62 24.2 C-56.18 16.65 -44.72 11.12 -31.69 6.89 C-29.68 6.2 -27.76 5.41 -25.8 4.58 C-20.84 2.65 -15.62 2.2 -10.37 1.57 C-6.68 1.02 -4.04 0.02 0 0 Z M1.51 41.14 C-0.87 41.46 -3.23 41.75 -5.62 42.01 C-11.09 42.68 -15.59 43.59 -20.49 46.14 C-22.2 46.87 -23.91 47.6 -25.62 48.33 C-49.71 58.74 -68.55 76.31 -81.49 99.14 C-81.86 99.78 -82.23 100.43 -82.62 101.1 C-88 111.09 -90.27 122.45 -91.99 133.56 C-92.49 136.14 -92.49 136.14 -93.49 137.14 C-93.59 138.83 -93.62 140.53 -93.62 142.23 C-93.63 143.26 -93.63 144.29 -93.63 145.35 C-93.62 146.44 -93.62 147.52 -93.62 148.64 C-93.62 149.72 -93.62 150.81 -93.63 151.92 C-93.63 152.95 -93.63 153.98 -93.62 155.05 C-93.62 156 -93.62 156.95 -93.62 157.93 C-93.74 160.11 -93.74 160.11 -92.49 161.14 C-92.19 163.45 -91.93 165.76 -91.68 168.08 C-90.9 174.64 -89.23 180.11 -86.49 186.14 C-86.18 187.13 -85.87 188.12 -85.55 189.14 C-82.55 197.63 -77.91 205.96 -72.49 213.14 C-71.83 213.14 -71.17 213.14 -70.49 213.14 C-70.33 213.82 -70.16 214.5 -69.99 215.2 C-68.13 218.84 -65.75 220.67 -62.64 223.25 C-60.53 225.11 -58.79 227.04 -56.99 229.2 C-53.67 233.1 -50.03 236.67 -45.49 239.14 C-44.17 239.14 -42.85 239.14 -41.49 239.14 C-41.49 239.8 -41.49 240.46 -41.49 241.14 C-26.17 249.11 -26.17 249.11 -9.49 253.14 C-9.16 253.47 -8.83 253.8 -8.49 254.14 C-7 254.35 -5.49 254.51 -3.99 254.64 C0.4 255.03 0.4 255.03 1.51 256.14 C3.42 256.24 5.34 256.27 7.26 256.27 C9.01 256.27 9.01 256.27 10.79 256.28 C12.02 256.27 13.24 256.27 14.51 256.26 C15.74 256.27 16.96 256.27 18.23 256.28 C19.39 256.27 20.56 256.27 21.76 256.27 C22.84 256.27 23.91 256.27 25.02 256.27 C27.45 256.42 27.45 256.42 28.51 255.14 C30.66 254.85 32.82 254.69 34.99 254.52 C37.99 254.07 40.64 253.14 43.51 252.14 C45.68 251.51 47.84 250.89 50.01 250.26 C54.81 248.8 58.44 247.14 62.51 244.14 C64.84 243.14 67.18 242.14 69.51 241.14 C71.66 239.92 73.52 238.64 75.51 237.14 C75.51 236.48 75.51 235.82 75.51 235.14 C76.35 235.03 76.35 235.03 77.21 234.91 C80.33 233.86 81.91 232.12 84.24 229.81 C85.12 228.93 86.01 228.04 86.92 227.14 C87.84 226.21 88.75 225.28 89.7 224.33 C90.62 223.41 91.55 222.49 92.51 221.55 C93.83 220.22 93.83 220.22 95.18 218.87 C96.39 217.65 96.39 217.65 97.62 216.41 C99.45 214.2 100.13 212.94 100.51 210.14 C101.17 210.14 101.83 210.14 102.51 210.14 C110.82 196.39 115.88 182.76 119.51 167.14 C119.69 166.54 119.87 165.93 120.05 165.31 C120.65 162.49 120.64 159.83 120.64 156.94 C120.64 155.13 120.64 155.13 120.65 153.27 C120.64 152.01 120.64 150.75 120.63 149.45 C120.64 148.21 120.64 146.97 120.65 145.69 C120.66 132.63 120.66 132.63 117.25 120.16 C116.47 118.05 116.08 116.04 115.7 113.83 C114.7 108.93 112.43 105.01 109.95 100.71 C108.79 98.63 107.82 96.65 106.95 94.45 C105.21 90.46 103.21 86.57 100.51 83.14 C99.85 83.14 99.19 83.14 98.51 83.14 C98.25 82.56 98 81.98 97.73 81.39 C87.82 63.16 66.21 51.88 47.51 45.14 C46.7 44.78 45.9 44.42 45.07 44.05 C41.69 42.85 38.3 42.47 34.76 42.08 C27.63 41.26 27.63 41.26 26.51 40.14 C24.74 40.04 22.97 40.01 21.2 40.01 C20.12 40 19.05 40 17.94 40 C16.81 40.01 15.67 40.01 14.51 40.01 C13.38 40.01 12.25 40.01 11.08 40 C10 40 8.93 40 7.82 40.01 C6.83 40.01 5.83 40.01 4.81 40.01 C2.55 39.88 2.55 39.88 1.51 41.14 Z " fill="#968C42" transform="translate(397.4912109375,449.8610534667969)"/>
<path d="M0 0 C1.9 0.01 1.9 0.01 3.84 0.02 C16.52 0.15 28.81 0.63 40.75 5.25 C43.33 6.11 45.91 6.97 48.5 7.81 C51.9 8.94 55.26 10.05 58.58 11.4 C60.67 12.37 60.67 12.37 62.75 12.25 C62.75 12.91 62.75 13.57 62.75 14.25 C63.41 14.31 64.07 14.37 64.75 14.44 C68.96 15.58 72.16 17.84 75.75 20.25 C76.78 20.93 77.81 21.61 78.88 22.31 C79.82 22.95 80.77 23.59 81.75 24.25 C82.74 24.91 83.73 25.57 84.75 26.25 C85.74 26.91 86.73 27.57 87.75 28.25 C89.27 29.21 89.27 29.21 90.81 30.19 C93.84 32.31 96.17 34.61 98.75 37.25 C100.04 38.36 101.33 39.46 102.62 40.56 C106.75 44.14 110.26 48.07 113.75 52.25 C114.58 53.2 115.4 54.15 116.25 55.12 C124.44 65.05 132.03 76.25 136.75 88.25 C137.01 88.92 137.28 89.58 137.55 90.27 C144.29 107.8 144.29 107.8 145.31 116.62 C145.35 120.05 145.35 120.05 146.75 121.25 C147.07 123.57 147.26 125.89 147.47 128.22 C147.54 130.24 147.54 130.24 148.75 131.25 C148.85 133.98 148.89 136.68 148.88 139.41 C148.88 140.63 148.88 140.63 148.89 141.88 C148.89 143.62 148.88 145.35 148.88 147.08 C148.88 149.74 148.88 152.4 148.89 155.06 C148.89 156.74 148.88 158.42 148.88 160.09 C148.88 160.89 148.89 161.7 148.89 162.52 C148.86 168.14 148.86 168.14 147.75 169.25 C147.42 170.85 147.14 172.45 146.88 174.06 C146.64 175.55 146.64 175.55 146.39 177.07 C146.05 179.16 145.72 181.25 145.39 183.33 C143.97 191.89 141.82 199.46 137.79 207.14 C136.62 209.52 135.69 211.95 134.75 214.44 C133.24 218.32 131.44 221.04 128.75 224.25 C127.61 226.55 126.69 228.86 125.75 231.25 C125.09 231.25 124.43 231.25 123.75 231.25 C123.49 231.98 123.23 232.71 122.96 233.47 C121.72 236.31 120.31 238.34 118.38 240.75 C117.44 241.92 117.44 241.92 116.48 243.11 C115.91 243.82 115.34 244.52 114.75 245.25 C114.05 246.16 113.35 247.07 112.62 248 C108.6 252.82 103.91 257.04 99.31 261.31 C98.77 261.83 98.22 262.35 97.65 262.88 C94.21 266.07 90.73 268.75 86.75 271.25 C88.44 274.62 92.32 275.25 95.69 276.56 C102.21 279.17 108.55 281.94 114.75 285.25 C114.75 285.91 114.75 286.57 114.75 287.25 C115.35 287.39 115.95 287.54 116.56 287.69 C118.31 288.14 120.04 288.68 121.75 289.25 C121.75 289.91 121.75 290.57 121.75 291.25 C123.4 291.58 125.05 291.91 126.75 292.25 C126.75 292.91 126.75 293.57 126.75 294.25 C127.31 294.53 127.87 294.8 128.45 295.09 C130.84 296.29 133.17 297.57 135.5 298.88 C136.3 299.32 137.1 299.77 137.92 300.23 C138.53 300.56 139.13 300.9 139.75 301.25 C139.75 301.91 139.75 302.57 139.75 303.25 C140.49 303.5 141.24 303.75 142 304 C144.98 305.35 146.53 306.88 148.75 309.25 C149.74 309.91 150.73 310.57 151.75 311.25 C158.76 317.04 165.17 323.54 171.62 329.94 C172.46 330.76 173.29 331.58 174.15 332.42 C178.21 336.48 181.72 340.34 184.75 345.25 C186.38 347.39 188.02 349.51 189.69 351.62 C199.75 364.57 199.75 364.57 199.75 368.25 C200.41 368.25 201.07 368.25 201.75 368.25 C210.17 379.93 216.87 394.95 220.9 408.71 C221.72 411.37 221.72 411.37 223.22 414.17 C226.8 421.37 228.84 429.28 229.75 437.25 C230.08 437.58 230.41 437.91 230.75 438.25 C231.08 440.58 231.42 442.92 231.75 445.25 C232.08 445.58 232.41 445.91 232.75 446.25 C232.96 447.58 233.12 448.91 233.25 450.25 C233.33 451.05 233.41 451.86 233.5 452.69 C233.67 454.4 233.83 456.1 234 457.81 C234.08 458.62 234.16 459.42 234.25 460.25 C234.32 460.99 234.39 461.74 234.47 462.5 C234.58 464.27 234.58 464.27 235.75 465.25 C235.84 467.47 235.86 469.69 235.85 471.91 C235.85 472.91 235.85 472.91 235.84 473.92 C235.84 476.05 235.83 478.18 235.81 480.31 C235.81 481.75 235.8 483.19 235.8 484.63 C235.79 488.17 235.77 491.71 235.75 495.25 C230.37 495.3 225 495.34 219.62 495.36 C217.8 495.37 215.97 495.38 214.14 495.4 C211.51 495.43 208.88 495.44 206.26 495.45 C205.44 495.46 204.62 495.47 203.77 495.48 C201.76 495.48 199.75 495.37 197.75 495.25 C195.27 492.77 195.47 491.92 195.37 488.5 C195.34 487.56 195.3 486.62 195.27 485.66 C195.23 484.19 195.23 484.19 195.19 482.69 C195.13 480.75 195.06 478.81 195 476.87 C194.97 476.01 194.95 475.15 194.92 474.26 C194.97 472.25 194.97 472.25 193.75 471.25 C193.54 469.34 193.33 467.44 193.16 465.52 C192.3 456.04 190.53 447.38 187.75 438.25 C187.32 436.78 186.88 435.3 186.45 433.83 C186.01 432.37 185.57 430.9 185.12 429.44 C184.92 428.75 184.71 428.06 184.5 427.35 C183.58 424.39 182.98 422.48 180.75 420.25 C180.38 419.05 180.01 417.86 179.62 416.62 C176.72 407.49 171.99 398.54 166.81 390.5 C165.08 387.77 164.38 386.28 163.75 383.25 C163.09 383.25 162.43 383.25 161.75 383.25 C160.77 381.86 159.8 380.47 158.89 379.04 C157.7 377.18 156.46 375.37 155.19 373.56 C154.79 373 154.4 372.44 154 371.86 C152.76 370.18 152.76 370.18 151.1 368.67 C149.75 367.25 149.75 367.25 149.75 365.25 C149.09 365.25 148.43 365.25 147.75 365.25 C146.41 363.26 145.07 361.26 143.75 359.25 C140.52 355.76 136.99 352.71 133.37 349.65 C131.4 347.95 129.59 346.09 127.75 344.25 C123.96 340.81 120.25 337.74 115.75 335.25 C111.05 332.57 111.05 332.57 109.31 330.75 C107.72 329.07 107.72 329.07 105.1 327.93 C102.11 326.43 99.33 324.8 96.5 323.04 C89.49 318.68 82.5 315.14 74.75 312.25 C73.99 311.95 73.23 311.66 72.44 311.36 C65.32 308.62 58.06 306.41 50.75 304.25 C49.53 303.88 48.32 303.51 47.06 303.12 C43.64 302.22 40.25 301.74 36.75 301.25 C36.42 300.92 36.09 300.59 35.75 300.25 C25.15 298.69 14.19 298.93 3.5 298.69 C1.68 298.64 -0.15 298.6 -1.97 298.56 C-6.4 298.45 -10.82 298.35 -15.25 298.25 C-14.94 295.27 -14.63 292.29 -14.31 289.31 C-14.23 288.46 -14.14 287.61 -14.05 286.74 C-13.96 285.93 -13.87 285.12 -13.79 284.29 C-13.71 283.54 -13.63 282.79 -13.55 282.02 C-13.25 280.25 -13.25 280.25 -12.25 279.25 C-12.05 277.72 -11.9 276.17 -11.79 274.63 C-11.71 273.69 -11.63 272.76 -11.55 271.79 C-11.39 269.81 -11.24 267.83 -11.09 265.84 C-11.01 264.91 -10.93 263.97 -10.85 263 C-10.78 262.14 -10.71 261.28 -10.64 260.39 C-10.25 258.25 -10.25 258.25 -8.25 256.25 C-6.07 255.96 -6.07 255.96 -3.38 255.91 C-2.39 255.88 -1.4 255.85 -0.39 255.82 C0.65 255.79 1.68 255.77 2.75 255.75 C10.31 255.58 17.38 254.99 24.75 253.25 C26.67 252.82 26.67 252.82 28.62 252.38 C30 252.01 31.38 251.64 32.75 251.25 C33.63 251.01 34.51 250.77 35.42 250.52 C46.96 247.04 57.49 240.95 66.75 233.25 C67.38 232.73 68.01 232.21 68.66 231.68 C83.36 219.16 97.49 202.61 101.75 183.25 C102.72 180.29 103.71 177.35 104.81 174.44 C107.22 166.27 106.9 157.69 106.88 149.25 C106.88 148.13 106.88 147 106.89 145.84 C107.6 135.45 107.6 135.45 104.75 126.25 C104.55 124.79 104.36 123.33 104.19 121.88 C103.18 116.01 101.13 110.82 98.81 105.38 C98.46 104.55 98.12 103.73 97.76 102.89 C95.99 98.83 94.16 94.97 91.75 91.25 C91.03 90.11 91.03 90.11 90.3 88.95 C85.79 82.36 80.57 76.77 74.94 71.12 C74.18 70.37 73.43 69.61 72.65 68.83 C68.72 64.74 68.72 64.74 63.75 62.25 C63.13 61.6 63.13 61.6 62.5 60.94 C54.72 53.43 41.01 48.16 30.75 45.25 C29.6 44.88 28.44 44.51 27.25 44.12 C19.19 42.11 11.08 42.09 2.81 42.12 C1.79 42.12 0.77 42.12 -0.28 42.11 C-9.91 42.13 -18.31 42.55 -27.25 46.25 C-28.58 46.59 -29.92 46.92 -31.25 47.25 C-33.09 47.85 -34.92 48.48 -36.75 49.12 C-37.69 49.45 -38.63 49.78 -39.59 50.12 C-42.19 51.22 -44.04 52.53 -46.25 54.25 C-47.32 54.68 -48.39 55.12 -49.5 55.56 C-59.97 59.87 -68.68 69.44 -76.17 77.62 C-78.25 79.25 -78.25 79.25 -80.52 79 C-81.37 78.63 -81.37 78.63 -82.25 78.25 C-82.06 78.85 -81.88 79.45 -81.69 80.06 C-81.25 82.25 -81.25 82.25 -82.25 85.25 C-82.89 85.72 -83.53 86.2 -84.19 86.69 C-86.42 88.38 -87.19 89.7 -88.25 92.25 C-91.14 91.62 -93.61 90.71 -96.25 89.38 C-96.91 89.05 -97.57 88.72 -98.25 88.38 C-100.25 87.25 -100.25 87.25 -102 85.88 C-105.22 83.55 -108.7 81.88 -112.25 80.12 C-113.32 79.59 -113.32 79.59 -114.41 79.04 C-115.44 78.52 -115.44 78.52 -116.5 77.99 C-117.44 77.53 -117.44 77.53 -118.39 77.05 C-120.32 76.22 -122.2 75.7 -124.25 75.25 C-123.75 71.52 -123.38 69.44 -121.25 66.25 C-120.59 66.25 -119.93 66.25 -119.25 66.25 C-119.15 65.65 -119.04 65.05 -118.94 64.44 C-118.14 61.9 -117.15 61.08 -115.25 59.25 C-114.24 57.59 -113.24 55.92 -112.25 54.25 C-101.62 40.2 -101.62 40.2 -95.88 36.88 C-93.08 35.29 -93.08 35.29 -90.62 32.56 C-88.25 30.25 -88.25 30.25 -85.25 30.25 C-84.75 28.76 -84.75 28.76 -84.25 27.25 C-83.59 27.25 -82.93 27.25 -82.25 27.25 C-82.25 26.59 -82.25 25.93 -82.25 25.25 C-80.93 25.25 -79.61 25.25 -78.25 25.25 C-77.75 23.76 -77.75 23.76 -77.25 22.25 C-74.92 21.58 -72.58 20.92 -70.25 20.25 C-69.75 18.76 -69.75 18.76 -69.25 17.25 C-67.25 16.22 -67.25 16.22 -64.69 15.31 C-61.53 14.14 -58.57 12.95 -55.62 11.31 C-51.63 9.25 -47.46 7.91 -43.19 6.56 C-42.51 6.35 -41.84 6.13 -41.15 5.91 C-36.87 4.6 -32.7 3.86 -28.25 3.25 C-27.92 2.92 -27.59 2.59 -27.25 2.25 C-18.2 0.3 -9.22 -0.07 0 0 Z M-12.25 280.25 C-11.25 282.25 -11.25 282.25 -11.25 282.25 Z " fill="#968C42" transform="translate(605.25,350.75)"/>
<path d="M0 0 C0.33 0 0.66 0 1 0 C1 7.59 1 15.18 1 23 C0.67 23 0.34 23 0 23 C0 15.41 0 7.82 0 0 Z " fill="#000100" transform="translate(305,587)"/>
<path d="M0 0 C0.33 0 0.66 0 1 0 C1 6.6 1 13.2 1 20 C0.67 20 0.34 20 0 20 C0 13.4 0 6.8 0 0 Z " fill="#000100" transform="translate(559,589)"/>
<path d="M0 0 C0.33 0 0.66 0 1 0 C1 4.95 1 9.9 1 15 C0.67 15 0.34 15 0 15 C0 10.05 0 5.1 0 0 Z " fill="#000100" transform="translate(646,918)"/>
<path d="M0 0 C2.64 0 5.28 0 8 0 C8 0.33 8 0.66 8 1 C5.36 1 2.72 1 0 1 C0 0.67 0 0.34 0 0 Z " fill="#000100" transform="translate(416,491)"/>
<path d="M0 0 C2.64 0 5.28 0 8 0 C8 0.33 8 0.66 8 1 C5.36 1 2.72 1 0 1 C0 0.67 0 0.34 0 0 Z " fill="#000100" transform="translate(400,491)"/>
<path d="M0 0 C0.33 0 0.66 0 1 0 C1 2.31 1 4.62 1 7 C0.67 7 0.34 7 0 7 C0 4.69 0 2.38 0 0 Z " fill="#000100" transform="translate(218,922)"/>
<path d="M0 0 C2.31 0 4.62 0 7 0 C7 0.33 7 0.66 7 1 C4.69 1 2.38 1 0 1 C0 0.67 0 0.34 0 0 Z " fill="#000100" transform="translate(389,748)"/>
<path d="M0 0 C1.98 0 3.96 0 6 0 C6 0.33 6 0.66 6 1 C4.02 1 2.04 1 0 1 C0 0.67 0 0.34 0 0 Z " fill="#000100" transform="translate(429,748)"/>
<path d="M0 0 C0.33 0 0.66 0 1 0 C1 1.98 1 3.96 1 6 C0.67 6 0.34 6 0 6 C0 4.02 0 2.04 0 0 Z " fill="#000100" transform="translate(557,572)"/>
<path d="M0 0 C0.33 0 0.66 0 1 0 C1 1.65 1 3.3 1 5 C0.67 5 0.34 5 0 5 C0 3.35 0 1.7 0 0 Z " fill="#000100" transform="translate(840,810)"/>
<path d="M0 0 C1.65 0 3.3 0 5 0 C5 0.33 5 0.66 5 1 C3.35 1 1.7 1 0 1 C0 0.67 0 0.34 0 0 Z " fill="#000100" transform="translate(636,651)"/>
<path d="M0 0 C0.33 0 0.66 0 1 0 C1 1.65 1 3.3 1 5 C0.67 5 0.34 5 0 5 C0 3.35 0 1.7 0 0 Z " fill="#000100" transform="translate(557,620)"/>
<path d="M0 0 C1 4 1 4 1 4 Z " fill="#000100" transform="translate(221,903)"/>
<path d="M0 0 C1 4 1 4 1 4 Z " fill="#000100" transform="translate(643,899)"/>
<path d="M0 0 C1 4 1 4 1 4 Z " fill="#000100" transform="translate(224,890)"/>
<path d="M0 0 C1 4 1 4 1 4 Z " fill="#000100" transform="translate(641,889)"/>
<path d="M0 0 C4 1 4 1 4 1 Z " fill="#000100" transform="translate(449,751)"/>
<path d="M0 0 C4 1 4 1 4 1 Z " fill="#000100" transform="translate(371,751)"/>
<path d="M0 0 C4 1 4 1 4 1 Z " fill="#000100" transform="translate(651,654)"/>
<path d="M0 0 C1 4 1 4 1 4 Z " fill="#000100" transform="translate(751,467)"/>
<path d="" fill="#000100" transform="translate(0,0)"/>
<path d="M0 0 C3 1 3 1 3 1 Z " fill="#000100" transform="translate(463,754)"/>
<path d="M0 0 C3 1 3 1 3 1 Z " fill="#000100" transform="translate(358,754)"/>
<path d="" fill="#000100" transform="translate(0,0)"/>
<path d="" fill="#000100" transform="translate(0,0)"/>
<path d="" fill="#000100" transform="translate(0,0)"/>
<path d="" fill="#000100" transform="translate(0,0)"/>
<path d="" fill="#000100" transform="translate(0,0)"/>
<path d="M0 0 C3 1 3 1 3 1 Z " fill="#000100" transform="translate(437,494)"/>
<path d="M0 0 C3 1 3 1 3 1 Z " fill="#000100" transform="translate(384,494)"/>
<path d="M0 0 C0.99 0.5 0.99 0.5 2 1 C1.01 1.5 1.01 1.5 0 2 C0 1.34 0 0.68 0 0 Z " fill="#645E2C" transform="translate(524,430)"/>
<path d="M0 0 C3 1 3 1 3 1 Z " fill="#000100" transform="translate(626,394)"/>
<path d="M0 0 C3 1 3 1 3 1 Z " fill="#000100" transform="translate(586,394)"/>
<path d="" fill="#000100" transform="translate(0,0)"/>
<path d="" fill="#000100" transform="translate(0,0)"/>
<path d="" fill="#000100" transform="translate(0,0)"/>
<path d="" fill="#000100" transform="translate(0,0)"/>
<path d="" fill="#000100" transform="translate(0,0)"/>
<path d="" fill="#000100" transform="translate(0,0)"/>
<path d="M0 0 C2 1 2 1 2 1 Z " fill="#000100" transform="translate(332,764)"/>
<path d="" fill="#000100" transform="translate(0,0)"/>
<path d="M0 0 C2 1 2 1 2 1 Z " fill="#000100" transform="translate(478,759)"/>
<path d="M0 0 C2 1 2 1 2 1 Z " fill="#000100" transform="translate(344,759)"/>
<path d="M0 0 C2 1 2 1 2 1 Z " fill="#000100" transform="translate(469,756)"/>
<path d="M0 0 C2 1 2 1 2 1 Z " fill="#000100" transform="translate(353,756)"/>
<path d="M0 0 C2 1 2 1 2 1 Z " fill="#000100" transform="translate(669,659)"/>
<path d="" fill="#000100" transform="translate(0,0)"/>
<path d="" fill="#000100" transform="translate(0,0)"/>
<path d="" fill="#000100" transform="translate(0,0)"/>
<path d="" fill="#000100" transform="translate(0,0)"/>
<path d="" fill="#978D43" transform="translate(0,0)"/>
<path d="" fill="#000100" transform="translate(0,0)"/>
<path d="" fill="#000100" transform="translate(0,0)"/>
<path d="" fill="#000100" transform="translate(0,0)"/>
<path d="" fill="#000100" transform="translate(0,0)"/>
<path d="" fill="#000100" transform="translate(0,0)"/>
<path d="" fill="#000100" transform="translate(0,0)"/>
<path d="" fill="#000100" transform="translate(0,0)"/>
<path d="" fill="#000100" transform="translate(0,0)"/>
<path d="" fill="#000100" transform="translate(0,0)"/>
<path d="" fill="#000100" transform="translate(0,0)"/>
<path d="" fill="#000100" transform="translate(0,0)"/>
<path d="" fill="#000100" transform="translate(0,0)"/>
<path d="" fill="#000100" transform="translate(0,0)"/>
<path d="" fill="#000100" transform="translate(0,0)"/>
<path d="" fill="#000100" transform="translate(0,0)"/>
<path d="" fill="#000100" transform="translate(0,0)"/>
<path d="" fill="#000100" transform="translate(0,0)"/>
<path d="" fill="#000100" transform="translate(0,0)"/>
<path d="" fill="#000100" transform="translate(0,0)"/>
<path d="" fill="#000100" transform="translate(0,0)"/>
<path d="" fill="#000100" transform="translate(0,0)"/>
<path d="" fill="#000100" transform="translate(0,0)"/>
<path d="" fill="#000100" transform="translate(0,0)"/>
<path d="" fill="#000100" transform="translate(0,0)"/>
<path d="" fill="#000100" transform="translate(0,0)"/>
<path d="" fill="#000100" transform="translate(0,0)"/>
<path d="" fill="#000100" transform="translate(0,0)"/>
<path d="" fill="#000100" transform="translate(0,0)"/>
<path d="" fill="#000100" transform="translate(0,0)"/>
<path d="" fill="#000100" transform="translate(0,0)"/>
<path d="" fill="#000100" transform="translate(0,0)"/>
<path d="" fill="#000100" transform="translate(0,0)"/>
<path d="" fill="#000100" transform="translate(0,0)"/>
<path d="" fill="#000100" transform="translate(0,0)"/>
<path d="" fill="#000100" transform="translate(0,0)"/>
<path d="" fill="#000100" transform="translate(0,0)"/>
<path d="" fill="#000100" transform="translate(0,0)"/>
<path d="" fill="#000100" transform="translate(0,0)"/>
<path d="" fill="#000100" transform="translate(0,0)"/>
<path d="" fill="#000100" transform="translate(0,0)"/>
<path d="" fill="#000100" transform="translate(0,0)"/>
<path d="" fill="#000100" transform="translate(0,0)"/>
<path d="" fill="#000100" transform="translate(0,0)"/>
<path d="" fill="#000100" transform="translate(0,0)"/>
<path d="" fill="#000100" transform="translate(0,0)"/>
<path d="" fill="#000100" transform="translate(0,0)"/>
<path d="" fill="#000100" transform="translate(0,0)"/>
<path d="" fill="#000100" transform="translate(0,0)"/>
<path d="" fill="#000100" transform="translate(0,0)"/>
<path d="" fill="#000100" transform="translate(0,0)"/>
<path d="" fill="#000100" transform="translate(0,0)"/>
<path d="" fill="#000100" transform="translate(0,0)"/>
<path d="" fill="#978D43" transform="translate(0,0)"/>
<path d="" fill="#000100" transform="translate(0,0)"/>
<path d="" fill="#000100" transform="translate(0,0)"/>
<path d="" fill="#000100" transform="translate(0,0)"/>
<path d="" fill="#000100" transform="translate(0,0)"/>
<path d="" fill="#000100" transform="translate(0,0)"/>
<path d="" fill="#000100" transform="translate(0,0)"/>
<path d="" fill="#000100" transform="translate(0,0)"/>
<path d="" fill="#000100" transform="translate(0,0)"/>
<path d="" fill="#000100" transform="translate(0,0)"/>
<path d="" fill="#000100" transform="translate(0,0)"/>
</svg>
