<?xml version="1.0" encoding="UTF-8"?>
<!-- Generator: visioncortex VTracer 0.6.3 -->
<svg version="1.1" xmlns="http://www.w3.org/2000/svg" width="989" height="1280">
<path d="M0 0 C0.99 -0 1.98 -0 3 -0 C10.12 0.05 10.12 0.05 11.25 1.19 C12.92 1.33 14.59 1.46 16.27 1.58 C31.13 2.75 45.1 8.35 58.25 15.19 C58.25 15.85 58.25 16.51 58.25 17.19 C59.03 17.37 59.82 17.56 60.62 17.75 C65.76 19.78 69.84 22.91 74.25 26.19 C75.04 26.76 75.83 27.33 76.65 27.92 C81.91 31.84 86.14 36.09 90.25 41.19 C90.91 42 91.57 42.8 92.25 43.64 C93.62 45.33 94.99 47.04 96.34 48.76 C97.51 50.25 98.7 51.72 99.91 53.18 C103.7 57.86 105.91 62.71 108.09 68.31 C109.07 70.73 110.13 72.96 111.38 75.25 C115.07 82.47 116.51 90.26 117.04 98.29 C117.05 100.2 117.05 100.2 118.25 101.19 C118.35 103.57 118.39 105.91 118.38 108.29 C118.38 109.37 118.38 109.37 118.39 110.47 C118.39 111.99 118.38 113.51 118.38 115.03 C118.38 117.35 118.38 119.66 118.39 121.98 C118.39 123.46 118.38 124.94 118.38 126.42 C118.38 127.11 118.39 127.79 118.39 128.5 C118.32 142.99 113.53 156.54 106.44 168.99 C105.1 171.38 105.1 171.38 103.75 174.81 C101.98 178.79 99.96 181.79 97.25 185.19 C96.59 185.19 95.93 185.19 95.25 185.19 C94.99 185.93 94.73 186.68 94.47 187.45 C93.21 190.29 91.96 191.84 89.77 194 C89.08 194.68 88.39 195.37 87.68 196.07 C86.96 196.77 86.24 197.47 85.5 198.19 C84.8 198.89 84.09 199.58 83.37 200.3 C72.32 211.19 72.32 211.19 69.25 211.19 C69.25 211.85 69.25 212.51 69.25 213.19 C76.94 217.12 76.94 217.12 84.81 220.69 C96.27 225.69 106.89 232.48 116.75 240.12 C117.29 240.54 117.84 240.96 118.39 241.39 C122.09 244.24 125.68 247.18 129.25 250.19 C129.95 250.77 130.65 251.36 131.38 251.96 C135.18 255.21 138.6 258.54 141.77 262.4 C143.28 264.22 144.85 265.95 146.44 267.69 C156.8 279.54 167.68 293.71 173.5 308.42 C174.31 310.47 174.31 310.47 176.25 313.19 C176.94 315.18 177.61 317.18 178.25 319.19 C178.72 320.46 179.2 321.73 179.69 323 C182.62 330.78 185.01 338.58 186.88 346.69 C187.09 347.64 187.31 348.59 187.54 349.57 C189.19 357.11 189.92 364.44 190.11 372.14 C189.9 375.06 189.9 375.06 191.25 376.19 C191.32 377.87 191.33 379.56 191.31 381.25 C191.3 382.63 191.3 382.63 191.29 384.04 C191.27 385.1 191.27 385.1 191.25 386.19 C186.57 386.21 181.89 386.23 177.21 386.24 C175.61 386.25 174.02 386.25 172.42 386.26 C170.14 386.28 167.85 386.28 165.57 386.29 C164.85 386.29 164.13 386.3 163.39 386.3 C161.68 386.3 159.96 386.25 158.25 386.19 C156.55 384.48 156.92 382.21 156.75 379.88 C156.67 378.8 156.59 377.72 156.5 376.62 C156.33 374.33 156.17 372.04 156 369.76 C155.92 368.68 155.84 367.61 155.75 366.5 C155.68 365.51 155.61 364.51 155.53 363.49 C155.49 361.23 155.49 361.23 154.25 360.19 C154.05 358.46 153.86 356.73 153.69 355 C150.92 336.47 142.27 316.3 130.46 301.68 C128.22 298.91 126.58 295.8 124.88 292.69 C122.97 289.76 120.74 287.63 118.25 285.19 C117.36 284.29 116.48 283.39 115.57 282.47 C114.66 281.55 113.75 280.63 112.81 279.69 C111.45 278.31 111.45 278.31 110.07 276.91 C105.17 272.18 99.89 268.07 94.38 264.12 C93.76 263.69 93.15 263.25 92.52 262.79 C88.26 259.79 83.97 257.41 79.25 255.19 C78.77 254.7 78.3 254.22 77.81 253.71 C75.99 251.93 74.34 251.17 72 250.19 C71.2 249.85 70.4 249.51 69.57 249.16 C68.81 248.84 68.04 248.52 67.25 248.19 C66.12 247.69 64.98 247.2 63.81 246.69 C62.05 245.94 62.05 245.94 60.25 245.19 C59.56 244.88 58.87 244.57 58.16 244.25 C52.08 241.65 45.94 239.99 39.52 238.49 C34.34 237.28 34.34 237.28 33.25 236.19 C31.63 235.97 30 235.82 28.38 235.69 C27.39 235.61 26.41 235.52 25.39 235.44 C24.35 235.36 23.32 235.27 22.25 235.19 C20.21 235.02 18.17 234.86 16.12 234.69 C15.21 234.62 14.3 234.54 13.37 234.47 C11.25 234.19 11.25 234.19 10.25 233.19 C8.64 233.09 7.02 233.06 5.41 233.05 C4.43 233.05 3.45 233.05 2.44 233.05 C1.41 233.05 0.38 233.06 -0.69 233.06 C-1.72 233.06 -2.74 233.05 -3.8 233.05 C-5.28 233.05 -5.28 233.05 -6.78 233.05 C-8.13 233.06 -8.13 233.06 -9.52 233.06 C-11.79 233.04 -11.79 233.04 -13.75 234.19 C-15.25 234.37 -16.75 234.51 -18.26 234.62 C-19.16 234.69 -20.07 234.76 -21 234.84 C-22.89 234.99 -24.79 235.13 -26.68 235.26 C-32.6 235.75 -37.26 236.94 -42.75 239.19 C-44.39 239.55 -46.03 239.87 -47.69 240.12 C-52.8 241.07 -57.09 242.95 -61.75 245.19 C-62.86 245.64 -63.98 246.1 -65.12 246.56 C-70.16 248.82 -74.93 251.5 -79.75 254.19 C-81.4 255.1 -83.04 256.02 -84.69 256.94 C-85.38 257.32 -86.07 257.71 -86.78 258.11 C-88.1 258.83 -89.45 259.51 -90.82 260.14 C-92.88 261.26 -94.13 262.5 -95.75 264.19 C-96.96 265.12 -98.19 266.04 -99.44 266.94 C-106.1 271.89 -112.09 277.43 -118 283.25 C-118.51 283.74 -119.02 284.24 -119.54 284.75 C-122.78 287.98 -125.23 291.35 -127.75 295.19 C-130 296.56 -130 296.56 -131.75 297.19 C-131.75 298.51 -131.75 299.83 -131.75 301.19 C-133.06 302.63 -133.06 302.63 -134.75 304.19 C-135.79 305.81 -136.79 307.46 -137.75 309.12 C-139.19 311.62 -140.61 314 -142.34 316.29 C-145.03 319.91 -146.42 324.18 -147.81 328.44 C-148.75 331.19 -148.75 331.19 -150.75 334.19 C-151.31 336.26 -151.31 336.26 -151.69 338.5 C-152.49 342.46 -153.94 345.57 -155.75 349.19 C-155.92 351.9 -155.92 351.9 -155.75 354.19 C-156.08 354.52 -156.41 354.85 -156.75 355.19 C-156.91 356.34 -157.08 357.5 -157.25 358.69 C-157.75 362.19 -157.75 362.19 -158.75 363.19 C-158.98 364.89 -159.14 366.6 -159.29 368.32 C-159.36 369.25 -159.44 370.18 -159.52 371.14 C-159.62 372.33 -159.71 373.52 -159.81 374.75 C-160.12 378.52 -160.43 382.3 -160.75 386.19 C-171.31 386.52 -181.87 386.85 -192.75 387.19 C-192.77 383.6 -192.79 380.01 -192.81 376.31 C-192.82 375.2 -192.83 374.09 -192.84 372.95 C-192.86 366.68 -192.8 360.39 -191.75 354.19 C-191.42 353.86 -191.09 353.53 -190.75 353.19 C-190.59 352.03 -190.42 350.88 -190.25 349.69 C-189.75 346.19 -189.75 346.19 -188.75 345.19 C-188.42 343.72 -188.14 342.23 -187.88 340.75 C-186.23 332.3 -183.69 324.72 -180.02 316.95 C-178.38 313.39 -177 309.75 -175.64 306.09 C-174.75 304.19 -174.75 304.19 -172.75 303.19 C-171.81 301.36 -170.95 299.5 -170.12 297.62 C-169.46 296.11 -169.46 296.11 -168.77 294.56 C-168.27 293.38 -168.27 293.38 -167.75 292.19 C-167.09 292.19 -166.43 292.19 -165.75 292.19 C-165.5 291.47 -165.25 290.76 -164.99 290.03 C-163.62 286.9 -161.93 284.48 -159.88 281.75 C-157.82 279 -155.81 276.28 -153.97 273.38 C-151.63 270.01 -149 267.15 -146.1 264.27 C-145.57 263.74 -145.03 263.2 -144.48 262.65 C-143.35 261.52 -142.23 260.4 -141.1 259.27 C-139.38 257.57 -137.67 255.85 -135.97 254.13 C-134.87 253.03 -133.77 251.93 -132.66 250.84 C-132.16 250.33 -131.66 249.82 -131.14 249.3 C-127.91 246.12 -124.55 243.64 -120.75 241.19 C-119.61 240.23 -118.49 239.26 -117.4 238.25 C-113.67 235 -109.67 232.56 -105.38 230.12 C-104.25 229.48 -104.25 229.48 -103.1 228.81 C-101.63 227.97 -100.16 227.13 -98.69 226.29 C-97.12 225.4 -95.56 224.49 -94 223.57 C-89.49 220.97 -84.91 218.97 -80.05 217.09 C-77.17 215.96 -74.43 214.77 -71.75 213.19 C-71.42 212.2 -71.09 211.21 -70.75 210.19 C-71.77 209.85 -71.77 209.85 -72.81 209.5 C-78.8 206.83 -82.72 203.31 -86.75 198.19 C-88.09 197 -89.44 195.84 -90.81 194.69 C-93.87 192.07 -95.9 189.8 -97.75 186.19 C-100.12 182.02 -100.12 182.02 -103.75 179.19 C-115.57 160.53 -122.17 139.63 -122.06 117.56 C-122.06 116.43 -122.05 115.29 -122.05 114.12 C-121.88 101.08 -120.26 89.11 -114.75 77.19 C-114.21 75.91 -113.68 74.63 -113.15 73.34 C-109.99 65.77 -106.7 58.79 -101.75 52.19 C-101.31 51.56 -100.88 50.94 -100.43 50.29 C-97.28 45.87 -93.74 41.79 -90.12 37.75 C-89.66 37.22 -89.19 36.68 -88.71 36.14 C-86.12 33.29 -84.45 32.02 -80.75 31.19 C-80.06 29.86 -79.4 28.53 -78.75 27.19 C-76.69 25.59 -76.69 25.59 -74.31 24.12 C-71.03 22.1 -71.03 22.1 -68.21 19.5 C-66.75 18.19 -66.75 18.19 -62.75 18.19 C-62.42 17.2 -62.09 16.21 -61.75 15.19 C-59.6 13.94 -59.6 13.94 -56.81 12.75 C-55.82 12.32 -54.82 11.89 -53.79 11.45 C-52.79 11.04 -51.78 10.62 -50.75 10.19 C-49.88 9.81 -49.01 9.43 -48.11 9.05 C-43.4 7.06 -38.83 5.61 -33.82 4.62 C-31.53 4.18 -31.53 4.18 -28.5 3.19 C-18.96 0.64 -9.83 0.01 0 0 Z M-24.65 35.37 C-26.66 36.15 -28.68 36.88 -30.71 37.58 C-39.73 40.77 -47.12 44.38 -54.56 50.5 C-56.75 52.19 -56.75 52.19 -58.94 52.62 C-59.54 52.81 -60.13 53 -60.75 53.19 C-61.16 54.3 -61.16 54.3 -61.57 55.44 C-62.99 58.74 -64.72 60.29 -67.38 62.69 C-78.19 73.2 -85.26 87.19 -87.39 102.11 C-87.75 104.19 -87.75 104.19 -88.75 105.19 C-88.85 106.96 -88.88 108.73 -88.88 110.5 C-88.88 111.58 -88.89 112.65 -88.89 113.76 C-88.88 114.89 -88.88 116.02 -88.88 117.19 C-88.88 118.32 -88.88 119.45 -88.89 120.62 C-88.89 121.69 -88.88 122.77 -88.88 123.88 C-88.88 124.87 -88.88 125.86 -88.88 126.89 C-89.01 129.15 -89.01 129.15 -87.75 130.19 C-87.42 131.51 -87.14 132.85 -86.88 134.19 C-83.87 147.94 -77.9 162.27 -67.75 172.19 C-66.24 174.02 -64.74 175.86 -63.28 177.73 C-61.48 179.44 -60.16 179.79 -57.75 180.19 C-57.75 180.85 -57.75 181.51 -57.75 182.19 C-56.76 182.19 -55.77 182.19 -54.75 182.19 C-54.42 183.18 -54.09 184.17 -53.75 185.19 C-45.17 191.14 -36.08 194.99 -26.01 197.54 C-23.75 198.19 -23.75 198.19 -22.75 199.19 C-15.55 200.24 -8.45 200.34 -1.19 200.31 C-0.1 200.32 0.98 200.32 2.1 200.32 C15.6 200.31 26.83 197.23 39.25 192.19 C39.25 191.53 39.25 190.87 39.25 190.19 C40.07 189.98 40.9 189.77 41.75 189.56 C45.48 188.1 48.05 186.28 51.18 183.82 C52.52 182.76 53.89 181.73 55.29 180.74 C68.62 171.31 78.71 155.76 83.25 140.19 C83.59 137.86 83.93 135.52 84.25 133.19 C84.58 132.86 84.91 132.53 85.25 132.19 C85.35 129.98 85.38 127.77 85.38 125.56 C85.38 124.9 85.38 124.24 85.39 123.56 C85.39 122.15 85.38 120.75 85.38 119.35 C85.38 117.2 85.38 115.04 85.39 112.89 C85.39 111.53 85.38 110.17 85.38 108.81 C85.38 106.94 85.38 106.94 85.38 105.04 C85.58 102.29 85.58 102.29 84.25 101.19 C83.97 99.75 83.73 98.32 83.5 96.88 C81.75 87.73 77.51 79.4 73.25 71.19 C72.59 71.19 71.93 71.19 71.25 71.19 C70.99 70.44 70.73 69.7 70.47 68.93 C68.45 64.39 64.93 61.34 61.44 57.88 C60.67 57.12 59.91 56.36 59.12 55.58 C47.9 44.69 35.5 38.59 20.4 34.8 C18.25 34.19 18.25 34.19 17.25 33.19 C4.07 30.81 -12.07 30.44 -24.65 35.37 Z " fill="#968C42" transform="translate(379.75,417.8125)"/>
<path d="M0 0 C0.8 -0.01 1.6 -0.02 2.42 -0.02 C4.1 -0.04 5.79 -0.05 7.47 -0.06 C9.16 -0.07 10.86 -0.09 12.55 -0.12 C23.98 -0.32 33.63 0.74 44.53 4.24 C46.67 4.83 48.82 5.42 50.97 5.99 C52.49 6.4 54.01 6.82 55.53 7.24 C55.53 7.9 55.53 8.56 55.53 9.24 C56.41 9.35 57.29 9.45 58.19 9.56 C61.63 10.26 63.94 11.31 66.97 13.05 C67.91 13.59 68.86 14.12 69.83 14.67 C70.72 15.19 71.61 15.71 72.53 16.24 C73.93 17.03 75.32 17.82 76.72 18.61 C78.11 19.42 78.11 19.42 79.53 20.24 C79.53 20.9 79.53 21.56 79.53 22.24 C81.51 22.9 83.49 23.56 85.53 24.24 C85.53 24.9 85.53 25.56 85.53 26.24 C86.19 26.24 86.85 26.24 87.53 26.24 C87.53 26.9 87.53 27.56 87.53 28.24 C88.12 28.51 88.71 28.77 89.32 29.05 C91.56 30.26 93.05 31.5 94.84 33.29 C95.44 33.88 96.05 34.48 96.66 35.1 C97.28 35.72 97.9 36.35 98.53 36.99 C99.15 37.6 99.76 38.21 100.4 38.83 C103.95 42.4 106.87 45.94 109.53 50.24 C110.08 51.06 110.64 51.89 111.21 52.74 C119.28 65.06 125.65 77.52 127.53 92.24 C127.86 92.57 128.19 92.9 128.53 93.24 C129.76 100.16 129.75 107.04 129.77 114.04 C129.78 116.21 129.81 118.37 129.84 120.53 C129.94 133.79 128.09 146.06 122.53 158.24 C122.21 158.98 121.89 159.73 121.56 160.5 C119.1 166.19 116.34 171.72 113.53 177.24 C112.87 177.24 112.21 177.24 111.53 177.24 C111.26 177.98 110.98 178.73 110.7 179.5 C107.38 187.3 100.73 193.24 94.84 199.18 C94.19 199.84 93.54 200.5 92.86 201.19 C92.23 201.81 91.6 202.43 90.96 203.08 C90.39 203.64 89.83 204.2 89.25 204.78 C87.53 206.24 87.53 206.24 85.38 207.31 C83.35 208.1 83.35 208.1 82.53 210.24 C81.21 210.24 79.89 210.24 78.53 210.24 C80.13 213.44 83.48 214.06 86.66 215.36 C93.74 218.36 100.49 221.75 107.23 225.44 C110.3 227.11 113.4 228.69 116.53 230.24 C116.53 230.9 116.53 231.56 116.53 232.24 C117.09 232.51 117.64 232.77 118.22 233.05 C123.63 235.83 127.81 239.17 132.25 243.3 C134.56 245.26 136.92 246.7 139.53 248.24 C145.21 252.63 149.95 257.74 154.53 263.24 C155.32 264.17 156.1 265.09 156.91 266.05 C157.78 267.11 158.66 268.18 159.53 269.24 C160.21 270.05 160.89 270.87 161.59 271.7 C170.23 282.11 177.32 292.63 183.3 304.74 C184.09 306.34 184.89 307.93 185.7 309.52 C186.06 310.21 186.41 310.9 186.78 311.61 C187.1 312.22 187.41 312.83 187.73 313.45 C188.58 315.36 189.04 317.21 189.53 319.24 C189.99 320.27 190.44 321.3 190.91 322.36 C192.88 326.86 194.19 331.52 195.53 336.24 C195.86 337.35 196.18 338.45 196.52 339.59 C200.84 355.15 200.89 370.19 200.53 386.24 C196.13 386.26 191.74 386.28 187.34 386.29 C185.84 386.3 184.35 386.31 182.85 386.31 C180.7 386.33 178.56 386.33 176.41 386.34 C175.12 386.34 173.82 386.35 172.49 386.35 C169.53 386.24 169.53 386.24 168.53 385.24 C168.32 383.55 168.16 381.85 168.03 380.14 C167.95 379.11 167.87 378.08 167.78 377.02 C167.61 374.83 167.45 372.64 167.28 370.45 C167.2 369.42 167.12 368.39 167.03 367.33 C166.96 366.38 166.89 365.43 166.81 364.45 C166.76 362.27 166.76 362.27 165.53 361.24 C165.2 359.24 164.92 357.24 164.66 355.24 C163.95 350.45 163.03 346.07 161.37 341.53 C160.76 339.87 160.21 338.2 159.7 336.51 C156.01 324.58 150.17 313.77 143.53 303.24 C142.93 302.25 142.34 301.26 141.72 300.24 C138.97 296.46 135.85 293.11 132.65 289.7 C130.61 287.33 129.1 284.95 127.53 282.24 C123.99 278.28 119.94 275.16 115.71 271.98 C113.53 270.24 113.53 270.24 111.44 268.09 C109.57 266.01 109.57 266.01 106.53 265.24 C105.19 263.91 103.86 262.58 102.53 261.24 C90.99 252.89 78.18 246.25 64.53 242.24 C62.95 241.72 61.36 241.2 59.78 240.68 C59.07 240.44 58.35 240.2 57.62 239.96 C55.52 239.23 53.47 238.43 51.41 237.61 C47.8 236.25 44.38 235.65 40.53 235.24 C32.66 234.36 32.66 234.36 31.53 233.24 C29.31 233.15 27.09 233.13 24.87 233.14 C24.21 233.14 23.54 233.14 22.86 233.14 C20.73 233.15 18.6 233.16 16.47 233.18 C15.03 233.18 13.59 233.19 12.15 233.19 C8.61 233.2 5.07 233.22 1.53 233.24 C1.53 233.57 1.53 233.9 1.53 234.24 C-0.12 234.24 -1.77 234.24 -3.47 234.24 C-3.58 228.79 -3.47 223.6 -2.47 218.24 C-2.14 217.91 -1.81 217.58 -1.47 217.24 C-1.02 213.63 -0.65 210.03 -0.31 206.41 C0.32 200.45 0.32 200.45 2.53 198.24 C5.32 198.04 5.32 198.04 8.59 198.11 C9.68 198.13 10.76 198.15 11.88 198.17 C12.75 198.19 13.63 198.21 14.53 198.24 C18.52 198.24 22.56 197.62 26.53 197.24 C27.71 197.14 28.88 197.03 30.09 196.93 C34.85 195.97 39.07 194.12 43.53 192.24 C45.28 191.57 47.03 190.9 48.78 190.24 C52.78 188.65 56.02 186.7 59.53 184.24 C60.19 184.24 60.85 184.24 61.53 184.24 C61.53 183.58 61.53 182.92 61.53 182.24 C63.25 180.76 63.25 180.76 65.59 179.05 C71.14 174.85 76.62 170.69 79.53 164.24 C80.19 164.24 80.85 164.24 81.53 164.24 C81.92 163.19 81.92 163.19 82.32 162.12 C83.65 158.95 85.27 156.05 86.97 153.05 C89.57 148.29 91.57 143.8 92.93 138.55 C93.53 136.24 93.53 136.24 94.55 133.48 C95.56 130.16 95.79 127.52 95.8 124.06 C95.8 122.9 95.8 121.75 95.8 120.55 C95.8 119.36 95.79 118.16 95.78 116.93 C95.79 115.74 95.8 114.56 95.8 113.33 C95.79 106.63 95.21 100.72 93.53 94.24 C93.41 91.18 93.41 91.18 93.53 89.24 C92.87 88.91 92.21 88.58 91.53 88.24 C90.46 86.24 90.46 86.24 89.41 83.8 C88.88 82.6 88.88 82.6 88.34 81.37 C87.53 79.24 87.53 79.24 87.53 77.24 C86.87 76.91 86.21 76.58 85.53 76.24 C83.96 73.61 83.53 72.37 83.53 69.24 C82.87 69.24 82.21 69.24 81.53 69.24 C79.53 66.24 79.53 66.24 79.53 63.24 C78.87 63.24 78.21 63.24 77.53 63.24 C76.97 62.54 76.42 61.84 75.84 61.11 C73.07 57.66 69.95 55.03 66.53 52.24 C65.66 51.52 64.8 50.79 63.91 50.05 C54.52 42.89 38.67 33.33 26.53 34.24 C25.87 33.91 25.21 33.58 24.53 33.24 C22.47 33.14 20.41 33.11 18.35 33.11 C16.49 33.1 16.49 33.1 14.6 33.1 C13.3 33.11 12 33.11 10.66 33.11 C8.72 33.11 8.72 33.11 6.74 33.1 C5.5 33.1 4.26 33.1 2.98 33.11 C1.84 33.11 0.7 33.11 -0.48 33.11 C-3.02 33.22 -5.05 33.53 -7.47 34.24 C-8.74 34.39 -8.74 34.39 -10.03 34.55 C-17.98 36.14 -25.14 39.42 -32.28 43.18 C-32.9 43.5 -33.53 43.82 -34.17 44.16 C-38.39 46.44 -41.86 49.07 -45.47 52.24 C-46.18 52.84 -46.89 53.43 -47.63 54.05 C-51.68 57.51 -55.15 61.04 -58.47 65.24 C-59.57 66.53 -60.67 67.83 -61.78 69.11 C-62.55 70.01 -62.55 70.01 -63.33 70.92 C-63.71 71.35 -64.08 71.79 -64.47 72.24 C-65.07 71.94 -65.68 71.63 -66.3 71.32 C-67.92 70.51 -69.53 69.72 -71.16 68.93 C-73.73 67.61 -76.22 66.24 -78.72 64.8 C-83.46 62.14 -88.38 60.14 -93.47 58.24 C-90.14 47.88 -83.6 41.04 -75.97 33.49 C-75.24 32.75 -74.5 32.01 -73.75 31.24 C-69.87 27.38 -66.15 24.07 -61.47 21.24 C-60.58 20.66 -59.69 20.08 -58.78 19.49 C-56.47 18.24 -56.47 18.24 -53.47 18.24 C-52.97 16.75 -52.97 16.75 -52.47 15.24 C-50.22 13.95 -48.07 12.85 -45.72 11.8 C-44.71 11.34 -44.71 11.34 -43.68 10.87 C-38.37 8.51 -32.99 6.67 -27.41 5.08 C-24.11 4.13 -20.89 3.02 -17.66 1.85 C-11.87 0.23 -5.97 0.06 0 0 Z M110.53 174.24 C110.86 175.23 111.19 176.22 111.53 177.24 C111.86 176.25 112.19 175.26 112.53 174.24 C111.87 174.24 111.21 174.24 110.53 174.24 Z " fill="#968C42" transform="translate(528.46875,341.76171875)"/>
<path d="M0 0 C0.33 0 0.66 0 1 0 C1 7.92 1 15.84 1 24 C0.67 24 0.34 24 0 24 C0 16.08 0 8.16 0 0 Z " fill="#000100" transform="translate(499,523)"/>
<path d="M0 0 C7.26 0 14.52 0 22 0 C22 0.33 22 0.66 22 1 C14.74 1 7.48 1 0 1 C0 0.67 0 0.34 0 0 Z " fill="#000100" transform="translate(368,651)"/>
<path d="M0 0 C0.33 0 0.66 0 1 0 C1 6.93 1 13.86 1 21 C0.67 21 0.34 21 0 21 C0 14.07 0 7.14 0 0 Z " fill="#000100" transform="translate(730,707)"/>
<path d="M0 0 C0.33 0 0.66 0 1 0 C1 5.61 1 11.22 1 17 C0.67 17 0.34 17 0 17 C0 11.39 0 5.78 0 0 Z " fill="#000100" transform="translate(659,450)"/>
<path d="M0 0 C0.33 0 0.66 0 1 0 C1 3.63 1 7.26 1 11 C0.67 11 0.34 11 0 11 C0 7.37 0 3.74 0 0 Z " fill="#000100" transform="translate(570,782)"/>
<path d="M0 0 C3.3 0 6.6 0 10 0 C10 0.33 10 0.66 10 1 C6.7 1 3.4 1 0 1 C0 0.67 0 0.34 0 0 Z " fill="#000100" transform="translate(550,575)"/>
<path d="M0 0 C0.33 0 0.66 0 1 0 C1 3.3 1 6.6 1 10 C0.67 10 0.34 10 0 10 C0 6.7 0 3.4 0 0 Z " fill="#000100" transform="translate(292,523)"/>
<path d="M0 0 C0.33 0 0.66 0 1 0 C1 2.97 1 5.94 1 9 C0.67 9 0.34 9 0 9 C0 6.03 0 3.06 0 0 Z " fill="#000100" transform="translate(292,538)"/>
<path d="M0 0 C0.33 0 0.66 0 1 0 C1 2.64 1 5.28 1 8 C0.67 8 0.34 8 0 8 C0 5.36 0 2.72 0 0 Z " fill="#000100" transform="translate(221,781)"/>
<path d="M0 0 C0.33 0 0.66 0 1 0 C1 1.98 1 3.96 1 6 C0.67 6 0.34 6 0 6 C0 4.02 0 2.04 0 0 Z " fill="#000100" transform="translate(497,512)"/>
<path d="M0 0 C1.98 0 3.96 0 6 0 C6 0.33 6 0.66 6 1 C4.02 1 2.04 1 0 1 C0 0.67 0 0.34 0 0 Z " fill="#000100" transform="translate(391,452)"/>
<path d="M0 0 C1.98 0 3.96 0 6 0 C6 0.33 6 0.66 6 1 C4.02 1 2.04 1 0 1 C0 0.67 0 0.34 0 0 Z " fill="#000100" transform="translate(361,452)"/>
<path d="M0 0 C1.65 0 3.3 0 5 0 C5 0.33 5 0.66 5 1 C3.35 1 1.7 1 0 1 C0 0.67 0 0.34 0 0 Z " fill="#000100" transform="translate(408,654)"/>
<path d="M0 0 C1.65 0 3.3 0 5 0 C5 0.33 5 0.66 5 1 C3.35 1 1.7 1 0 1 C0 0.67 0 0.34 0 0 Z " fill="#000100" transform="translate(345,654)"/>
<path d="M0 0 C1 4 1 4 1 4 Z " fill="#000100" transform="translate(497,554)"/>
<path d="M0 0 C4 1 4 1 4 1 Z " fill="#000100" transform="translate(557,376)"/>
<path d="" fill="#000100" transform="translate(0,0)"/>
<path d="" fill="#000100" transform="translate(0,0)"/>
<path d="" fill="#000100" transform="translate(0,0)"/>
<path d="M0 0 C3 1 3 1 3 1 Z " fill="#000100" transform="translate(327,659)"/>
<path d="M0 0 C3 1 3 1 3 1 Z " fill="#000100" transform="translate(573,578)"/>
<path d="M0 0 C0.33 0.66 0.66 1.32 1 2 C0.34 1.67 -0.32 1.34 -1 1 C-0.67 0.67 -0.34 0.34 0 0 Z " fill="#322F16" transform="translate(320,471)"/>
<path d="M0 0 C3 1 3 1 3 1 Z " fill="#000100" transform="translate(517,376)"/>
<path d="" fill="#000100" transform="translate(0,0)"/>
<path d="" fill="#000100" transform="translate(0,0)"/>
<path d="" fill="#000100" transform="translate(0,0)"/>
<path d="M0 0 C2 1 2 1 2 1 Z " fill="#000100" transform="translate(437,662)"/>
<path d="M0 0 C2 1 2 1 2 1 Z " fill="#000100" transform="translate(428,659)"/>
<path d="" fill="#000100" transform="translate(0,0)"/>
<path d="" fill="#000100" transform="translate(0,0)"/>
<path d="" fill="#000100" transform="translate(0,0)"/>
<path d="" fill="#000100" transform="translate(0,0)"/>
<path d="" fill="#000100" transform="translate(0,0)"/>
<path d="" fill="#000100" transform="translate(0,0)"/>
<path d="M0 0 C2 1 2 1 2 1 Z " fill="#000100" transform="translate(411,457)"/>
<path d="" fill="#000100" transform="translate(0,0)"/>
<path d="" fill="#000100" transform="translate(0,0)"/>
<path d="" fill="#000100" transform="translate(0,0)"/>
<path d="" fill="#000100" transform="translate(0,0)"/>
<path d="" fill="#000100" transform="translate(0,0)"/>
<path d="" fill="#000100" transform="translate(0,0)"/>
<path d="" fill="#000100" transform="translate(0,0)"/>
<path d="" fill="#000100" transform="translate(0,0)"/>
<path d="" fill="#000100" transform="translate(0,0)"/>
<path d="" fill="#000100" transform="translate(0,0)"/>
<path d="" fill="#000100" transform="translate(0,0)"/>
<path d="" fill="#000100" transform="translate(0,0)"/>
<path d="" fill="#000100" transform="translate(0,0)"/>
<path d="" fill="#000100" transform="translate(0,0)"/>
<path d="" fill="#000100" transform="translate(0,0)"/>
<path d="" fill="#000100" transform="translate(0,0)"/>
<path d="" fill="#000100" transform="translate(0,0)"/>
<path d="" fill="#000100" transform="translate(0,0)"/>
<path d="" fill="#000100" transform="translate(0,0)"/>
<path d="" fill="#000100" transform="translate(0,0)"/>
<path d="" fill="#000100" transform="translate(0,0)"/>
<path d="" fill="#000100" transform="translate(0,0)"/>
<path d="" fill="#000100" transform="translate(0,0)"/>
<path d="" fill="#000100" transform="translate(0,0)"/>
<path d="" fill="#000100" transform="translate(0,0)"/>
<path d="" fill="#000100" transform="translate(0,0)"/>
<path d="" fill="#000100" transform="translate(0,0)"/>
<path d="" fill="#000100" transform="translate(0,0)"/>
<path d="" fill="#000100" transform="translate(0,0)"/>
<path d="" fill="#000100" transform="translate(0,0)"/>
<path d="" fill="#000100" transform="translate(0,0)"/>
<path d="" fill="#000100" transform="translate(0,0)"/>
<path d="" fill="#000100" transform="translate(0,0)"/>
<path d="" fill="#000100" transform="translate(0,0)"/>
<path d="" fill="#000100" transform="translate(0,0)"/>
<path d="" fill="#000100" transform="translate(0,0)"/>
<path d="" fill="#000100" transform="translate(0,0)"/>
<path d="" fill="#000100" transform="translate(0,0)"/>
<path d="" fill="#000100" transform="translate(0,0)"/>
<path d="" fill="#000100" transform="translate(0,0)"/>
<path d="" fill="#000100" transform="translate(0,0)"/>
<path d="" fill="#000100" transform="translate(0,0)"/>
<path d="" fill="#000100" transform="translate(0,0)"/>
<path d="" fill="#000100" transform="translate(0,0)"/>
<path d="" fill="#000100" transform="translate(0,0)"/>
<path d="" fill="#000100" transform="translate(0,0)"/>
<path d="" fill="#000100" transform="translate(0,0)"/>
<path d="" fill="#000100" transform="translate(0,0)"/>
<path d="" fill="#000100" transform="translate(0,0)"/>
<path d="" fill="#000100" transform="translate(0,0)"/>
<path d="" fill="#000100" transform="translate(0,0)"/>
<path d="" fill="#000100" transform="translate(0,0)"/>
<path d="" fill="#000100" transform="translate(0,0)"/>
<path d="" fill="#000100" transform="translate(0,0)"/>
<path d="" fill="#000100" transform="translate(0,0)"/>
<path d="" fill="#000100" transform="translate(0,0)"/>
</svg>
