<?xml version="1.0" encoding="UTF-8"?>
<!-- Generator: visioncortex VTracer 0.6.3 -->
<svg version="1.1" xmlns="http://www.w3.org/2000/svg" width="989" height="1280">
<path d="M0 0 C1.87 -0 1.87 -0 3.78 -0 C12.78 0.05 12.78 0.05 16.19 1.19 C19.31 1.49 22.44 1.7 25.57 1.91 C28.19 2.19 28.19 2.19 29.19 3.19 C31.24 3.66 33.31 4.09 35.38 4.5 C46.6 6.85 57.49 10.05 68.19 14.19 C68.92 14.46 69.66 14.73 70.42 15.01 C74.53 16.76 78.43 18.85 82.38 20.94 C83.22 21.38 84.06 21.83 84.93 22.29 C99.07 29.81 99.07 29.81 102.19 32.19 C102.19 32.85 102.19 33.51 102.19 34.19 C103.51 34.52 104.83 34.85 106.19 35.19 C106.19 35.85 106.19 36.51 106.19 37.19 C106.72 37.25 107.25 37.31 107.8 37.38 C111.24 38.55 113.63 40.83 116.31 43.19 C116.89 43.69 117.47 44.19 118.06 44.7 C119.23 45.72 120.4 46.74 121.57 47.77 C122.95 48.98 124.34 50.17 125.73 51.36 C131.16 56.06 136.13 61.16 141.06 66.38 C141.71 67.05 142.35 67.73 143.01 68.43 C146.48 72.15 149.47 75.86 152.19 80.19 C153.31 81.8 154.43 83.4 155.56 85 C156.17 85.87 156.78 86.75 157.41 87.65 C158.47 89.16 159.54 90.67 160.62 92.16 C171.55 107.71 180.65 126.74 185.19 145.19 C185.52 145.97 185.84 146.74 186.18 147.55 C187.31 150.51 187.79 153.3 188.25 156.44 C188.52 160.13 188.52 160.13 190.19 163.19 C190.67 166.82 191.06 170.46 191.44 174.11 C191.52 177.97 191.52 177.97 193.19 181.19 C193.4 183.84 193.56 186.47 193.69 189.12 C193.73 194.31 193.73 194.31 195.19 199.19 C195.28 201.21 195.32 203.23 195.32 205.25 C195.32 206.46 195.32 207.67 195.32 208.91 C195.32 210.18 195.32 211.45 195.31 212.75 C195.32 214.02 195.32 215.29 195.32 216.6 C195.32 217.81 195.32 219.01 195.32 220.25 C195.32 221.92 195.32 221.92 195.32 223.63 C195.19 226.19 195.19 226.19 194.19 227.19 C193.98 230.02 193.81 232.85 193.69 235.69 C193.32 244.05 193.32 244.05 192.19 245.19 C192.19 246.51 192.19 247.83 192.19 249.19 C192.19 250.51 192.19 251.83 192.19 253.19 C191.86 253.52 191.53 253.85 191.19 254.19 C190.01 259.06 189.06 263.92 188.25 268.88 C187.5 273.14 186.2 276.34 184.19 280.19 C183.84 281.62 183.53 283.06 183.25 284.5 C182.02 290.59 179.63 296.02 176.19 301.19 C175.88 302.29 175.56 303.38 175.24 304.52 C170.63 320.57 158.05 337.72 147.19 350.19 C146.54 350.96 145.89 351.73 145.21 352.52 C140.52 358.02 140.52 358.02 138.19 359.19 C137.2 358.86 136.21 358.53 135.19 358.19 C135.19 358.85 135.19 359.51 135.19 360.19 C134.53 360.19 133.87 360.19 133.19 360.19 C133.19 360.85 133.19 361.51 133.19 362.19 C132.53 362.19 131.87 362.19 131.19 362.19 C131.47 362.72 131.75 363.26 132.04 363.81 C132.19 366.19 132.19 366.19 129.87 369.06 C128.8 370.12 127.72 371.16 126.62 372.19 C126.1 372.71 125.57 373.23 125.03 373.77 C121.64 377.05 118.15 379.64 114.19 382.19 C113.35 383.05 113.35 383.05 112.5 383.94 C111.19 385.19 111.19 385.19 108.19 385.19 C108.19 385.85 108.19 386.51 108.19 387.19 C108.74 387.31 109.3 387.43 109.87 387.56 C114.57 388.84 118.98 391 123.44 392.94 C124.45 393.37 125.46 393.8 126.5 394.24 C132.41 396.8 137.85 399.6 143.19 403.19 C143.96 403.69 144.74 404.19 145.54 404.7 C146.15 405.09 146.75 405.48 147.38 405.88 C149.5 407.21 151.33 408.24 153.69 409.12 C156.99 410.53 159.52 412.62 162.32 414.85 C164.25 416.37 164.25 416.37 167.19 417.19 C167.93 417.95 168.67 418.71 169.44 419.5 C172.53 422.52 175.39 424.18 179.19 426.19 C179.19 426.85 179.19 427.51 179.19 428.19 C179.74 428.25 180.3 428.31 180.88 428.38 C184.13 429.52 185.79 431.74 188.19 434.19 C189.12 434.74 190.04 435.3 191 435.88 C191.72 436.31 192.44 436.74 193.19 437.19 C193.19 437.85 193.19 438.51 193.19 439.19 C194.18 439.52 195.17 439.85 196.19 440.19 C198.19 442.19 198.19 442.19 199.19 444.19 C199.76 444.45 200.33 444.72 200.92 445 C203.99 446.61 206.05 448.79 208.5 451.24 C209 451.73 209.5 452.23 210.01 452.74 C211.06 453.79 212.11 454.84 213.15 455.89 C214.74 457.49 216.34 459.08 217.94 460.67 C218.96 461.69 219.98 462.71 221 463.74 C221.93 464.66 222.85 465.59 223.8 466.54 C226.01 468.99 227.57 471.33 229.19 474.19 C231.5 476.85 233.91 479.41 236.32 481.98 C238.19 484.19 238.19 484.19 238.19 486.19 C238.85 486.19 239.51 486.19 240.19 486.19 C241.58 488.14 242.91 490.15 244.19 492.19 C246.57 496.35 246.57 496.35 250.19 499.19 C251.03 500.57 251.81 502 252.56 503.44 C253.96 506.05 255.25 508.26 257.12 510.56 C259.75 513.9 261.57 517.5 263.56 521.25 C265.11 524.05 266.79 526.7 268.56 529.38 C274.79 539.02 279.79 549.23 283.19 560.19 C283.85 560.85 284.51 561.51 285.19 562.19 C285.97 564.14 285.97 564.14 286.69 566.44 C286.95 567.24 287.2 568.05 287.47 568.88 C287.71 569.64 287.94 570.4 288.19 571.19 C289.2 574.35 290.27 577.37 291.59 580.42 C296.28 591.27 300.15 603.26 301.69 615 C302.05 618.27 302.05 618.27 303.65 621.33 C305.49 625.5 305.92 629.56 306.31 634.06 C306.35 639.02 306.35 639.02 308.19 643.19 C308.4 644.88 308.56 646.58 308.69 648.28 C308.77 649.31 308.85 650.34 308.94 651.4 C309.1 653.59 309.27 655.78 309.44 657.97 C309.52 659 309.6 660.03 309.69 661.09 C309.76 662.05 309.83 663 309.91 663.98 C309.95 666.16 309.95 666.16 311.19 667.19 C311.28 669.78 311.3 672.35 311.29 674.94 C311.28 675.63 311.28 676.32 311.28 677.02 C311.28 679.6 311.26 682.17 311.25 684.75 C311.23 690.5 311.21 696.26 311.19 702.19 C294.03 702.19 276.87 702.19 259.19 702.19 C257.12 698.05 257.74 692.74 257.56 688.19 C257.51 687.07 257.46 685.95 257.41 684.8 C257.36 683.73 257.32 682.66 257.27 681.56 C257.21 680.09 257.21 680.09 257.15 678.59 C257.19 676.19 257.19 676.19 258.19 674.19 C257.53 674.19 256.87 674.19 256.19 674.19 C256.22 672.27 256.25 670.35 256.29 668.43 C256.25 666.14 256.25 666.14 255.69 663.78 C255.14 660.92 255.09 658.29 255.12 655.38 C255.13 654.4 255.14 653.42 255.15 652.42 C255.17 651.31 255.17 651.31 255.19 650.19 C254.53 650.19 253.87 650.19 253.19 650.19 C253.09 649.34 252.99 648.49 252.89 647.62 C251.77 638.81 249.79 630.69 247.19 622.19 C246.8 620.82 246.41 619.46 246.03 618.09 C243.25 608.24 239.95 598.7 236.19 589.19 C235.79 588.16 235.39 587.14 234.98 586.08 C231.54 577.54 227.37 569.38 223.19 561.19 C222.82 560.39 222.45 559.6 222.07 558.78 C221.28 557 221.28 557 219.19 556.19 C218.46 554.51 217.73 552.83 217.04 551.13 C215.68 548.04 213.85 545.25 212 542.44 C211.6 541.83 211.21 541.23 210.8 540.6 C204.02 530.29 196.8 519.75 188.01 511.03 C186.19 509.19 186.19 509.19 184.75 506.69 C182.94 503.79 180.87 502.28 178.19 500.19 C176.83 498.54 175.5 496.87 174.19 495.19 C170.83 491.55 167.23 488.61 163.25 485.71 C159.06 482.61 155.07 479.27 151.06 475.94 C143.69 469.91 136.26 464.07 127.83 459.6 C124.98 458.08 122.17 456.49 119.36 454.89 C104.26 446.31 88.96 439.6 72.43 434.27 C70.44 433.6 68.46 432.89 66.52 432.11 C64.36 431.25 62.33 430.67 60.06 430.19 C58.91 429.94 58.91 429.94 57.74 429.69 C53.96 428.95 50.17 428.29 46.38 427.65 C44.19 427.19 44.19 427.19 43.19 426.19 C41.57 425.97 39.94 425.82 38.31 425.69 C37.33 425.61 36.34 425.52 35.33 425.44 C34.29 425.36 33.26 425.27 32.19 425.19 C30.15 425.02 28.1 424.86 26.06 424.69 C25.15 424.62 24.24 424.54 23.3 424.47 C21.19 424.19 21.19 424.19 20.19 423.19 C18.84 423.09 17.49 423.06 16.14 423.06 C15.28 423.05 14.43 423.05 13.54 423.05 C12.61 423.05 11.68 423.05 10.72 423.05 C9.77 423.05 8.82 423.05 7.84 423.05 C5.82 423.05 3.81 423.05 1.8 423.06 C-1.3 423.06 -4.39 423.06 -7.49 423.05 C-9.44 423.05 -11.39 423.05 -13.34 423.05 C-14.28 423.05 -15.21 423.05 -16.17 423.05 C-17.03 423.05 -17.88 423.05 -18.77 423.06 C-19.91 423.06 -19.91 423.06 -21.07 423.06 C-22.84 423 -22.84 423 -23.81 424.19 C-25.43 424.4 -27.06 424.56 -28.69 424.69 C-29.67 424.77 -30.66 424.85 -31.67 424.94 C-33.77 425.1 -35.86 425.27 -37.95 425.44 C-38.94 425.52 -39.92 425.6 -40.94 425.69 C-41.85 425.76 -42.76 425.83 -43.7 425.91 C-45.79 425.97 -45.79 425.97 -46.81 427.19 C-49.14 427.53 -51.48 427.87 -53.81 428.19 C-54.8 428.52 -55.79 428.85 -56.81 429.19 C-58.35 429.49 -59.89 429.78 -61.44 430.06 C-73.27 432.4 -84.63 437.22 -95.56 442.22 C-98.99 443.69 -102.51 444.87 -106.04 446.06 C-112.32 448.61 -117.98 452.51 -123.69 456.12 C-127.94 458.81 -132.18 461.46 -136.62 463.81 C-143.11 467.32 -149.56 471.67 -154.69 477 C-156.92 479.29 -159.07 480.56 -161.81 482.19 C-164.22 484.11 -166.51 486.15 -168.81 488.19 C-169.72 488.96 -169.72 488.96 -170.65 489.75 C-174.77 493.26 -178.71 496.95 -182.56 500.75 C-183.46 501.64 -184.37 502.53 -185.3 503.44 C-187.83 506.2 -189.78 509.05 -191.81 512.19 C-192.85 513.42 -193.91 514.63 -195 515.81 C-206.23 528.41 -214.98 542.88 -223.81 557.19 C-224.33 558.01 -224.84 558.84 -225.37 559.69 C-227.3 563.04 -229.03 566.47 -230.75 569.94 C-231.11 570.65 -231.46 571.37 -231.83 572.11 C-234.29 577.08 -236.68 582.06 -238.81 587.19 C-239.3 588.35 -239.78 589.51 -240.28 590.71 C-243.18 597.77 -245.75 604.83 -247.81 612.19 C-248.48 614.19 -249.15 616.19 -249.81 618.19 C-251.56 623.71 -253.13 629.21 -254.29 634.89 C-254.71 636.74 -255.24 638.56 -255.8 640.37 C-256.97 644.77 -257.45 649.04 -257.88 653.56 C-258.68 662.06 -258.68 662.06 -259.81 663.19 C-260.02 665.52 -260.18 667.85 -260.31 670.19 C-260.7 677.08 -260.7 677.08 -261.81 678.19 C-261.97 679.97 -262.06 681.75 -262.13 683.54 C-262.19 685.15 -262.19 685.15 -262.26 686.81 C-262.3 687.94 -262.33 689.08 -262.38 690.25 C-262.42 691.39 -262.46 692.53 -262.51 693.71 C-262.61 696.53 -262.71 699.36 -262.81 702.19 C-270.18 702.26 -277.55 702.32 -284.92 702.35 C-287.43 702.37 -289.94 702.39 -292.44 702.41 C-296.04 702.45 -299.64 702.47 -303.24 702.48 C-304.37 702.5 -305.5 702.51 -306.66 702.53 C-307.7 702.53 -308.74 702.53 -309.81 702.53 C-310.73 702.53 -311.65 702.54 -312.6 702.55 C-313.33 702.43 -314.06 702.31 -314.81 702.19 C-317.32 698.43 -316.99 696.62 -316.82 692.15 C-316.79 691.13 -316.79 691.13 -316.76 690.08 C-316.71 688.65 -316.65 687.21 -316.59 685.77 C-316.5 683.56 -316.43 681.36 -316.35 679.15 C-315.96 668.34 -315.96 668.34 -314.81 667.19 C-314.6 665.83 -314.44 664.47 -314.31 663.11 C-314.23 662.28 -314.15 661.45 -314.06 660.59 C-313.98 659.71 -313.9 658.84 -313.81 657.94 C-313.34 652.96 -312.86 648.08 -311.81 643.19 C-311.54 640.82 -311.31 638.45 -311.09 636.08 C-310.81 634.19 -310.81 634.19 -309.81 633.19 C-309.47 631.79 -309.18 630.38 -308.91 628.96 C-308.66 627.66 -308.66 627.66 -308.4 626.33 C-308.14 624.96 -308.14 624.96 -307.88 623.56 C-306.76 617.68 -305.55 611.92 -303.81 606.19 C-303.52 605.16 -303.24 604.12 -302.94 603.06 C-302.56 601.77 -302.19 600.48 -301.81 599.19 C-301.56 598.29 -301.3 597.38 -301.04 596.45 C-298.93 589.21 -296.33 582.29 -293.36 575.36 C-291.89 571.9 -290.56 568.47 -289.43 564.88 C-287.61 559.29 -285.07 554.09 -282.5 548.81 C-281.81 547.37 -281.81 547.37 -281.1 545.89 C-275.97 535.23 -270.27 525.08 -263.88 515.12 C-263.29 514.21 -262.71 513.29 -262.11 512.35 C-257 504.35 -251.78 496.41 -245.75 489.06 C-243.33 486.08 -240.97 483.09 -238.69 480 C-235.89 476.24 -232.9 472.71 -229.81 469.19 C-229.12 468.35 -229.12 468.35 -228.41 467.5 C-220.15 457.73 -210.95 448.09 -200.6 440.54 C-198.56 439.06 -198.56 439.06 -196.06 436.44 C-193.81 434.19 -193.81 434.19 -191.43 432.78 C-188.84 431.21 -186.92 429.53 -184.75 427.44 C-172.38 416.19 -172.38 416.19 -165.81 416.19 C-165.48 415.2 -165.15 414.21 -164.81 413.19 C-162.57 411.67 -162.57 411.67 -159.81 410.19 C-158.59 409.51 -158.59 409.51 -157.34 408.83 C-156.49 408.37 -155.63 407.91 -154.75 407.44 C-150.65 405.21 -146.59 402.92 -142.56 400.56 C-141.56 399.98 -140.55 399.39 -139.52 398.79 C-137.97 397.87 -136.42 396.94 -134.89 396 C-130.52 393.34 -125.99 391.73 -121.17 390.12 C-118.67 389.31 -118.67 389.31 -116.81 387.19 C-114.69 386.56 -114.69 386.56 -112.81 386.19 C-113.3 385.76 -113.78 385.34 -114.28 384.9 C-116.46 383 -118.64 381.09 -120.81 379.19 C-121.37 378.71 -121.93 378.24 -122.5 377.75 C-128.48 372.62 -134.06 367.13 -139.62 361.56 C-140.57 360.62 -141.52 359.69 -142.47 358.75 C-143.38 357.85 -144.28 356.95 -145.21 356.02 C-146.02 355.21 -146.83 354.41 -147.67 353.57 C-149.77 351.23 -151.27 348.91 -152.81 346.19 C-153.79 345.17 -154.79 344.17 -155.81 343.19 C-158.5 340 -160.7 336.77 -162.81 333.19 C-163.25 332.47 -163.69 331.75 -164.14 331 C-165.71 328.41 -167.26 325.8 -168.81 323.19 C-169.76 321.62 -169.76 321.62 -170.73 320.02 C-175.69 311.67 -179.53 303.14 -183.05 294.09 C-183.75 292.35 -184.52 290.63 -185.29 288.93 C-187.47 283.89 -188.84 278.59 -190.31 273.31 C-190.62 272.21 -190.93 271.11 -191.25 269.98 C-193.41 262.08 -195.08 254.22 -196.3 246.12 C-196.5 243.31 -196.5 243.31 -197.81 242.19 C-200.16 222.77 -200.16 201.6 -197.81 182.19 C-197.48 181.86 -197.15 181.53 -196.81 181.19 C-196.44 178.73 -196.11 176.28 -195.81 173.81 C-194.94 166.58 -194.94 166.58 -193.81 163.19 C-193.01 159.91 -192.22 156.63 -191.45 153.34 C-190.32 148.69 -188.75 144.56 -186.81 140.19 C-186.3 138.59 -185.82 136.99 -185.38 135.38 C-183.11 127.62 -180.18 120.45 -176.06 113.49 C-174.7 111.09 -174.7 111.09 -173.52 108 C-171.56 103.34 -168.85 99.18 -166.12 94.94 C-165.32 93.68 -165.32 93.68 -164.5 92.4 C-158.82 83.55 -153.18 75.24 -145.54 67.95 C-143.63 66.11 -143.63 66.11 -141.88 63.25 C-137.64 56.96 -132.31 52.02 -125.81 48.19 C-123.67 46.39 -121.63 44.51 -119.58 42.61 C-117.81 41.19 -117.81 41.19 -115.81 41.19 C-115.58 40.59 -115.35 40 -115.12 39.39 C-113.46 36.6 -111.73 35.61 -108.94 34 C-108.07 33.49 -107.21 32.98 -106.32 32.46 C-103.81 31.19 -103.81 31.19 -101.55 30.7 C-100.98 30.53 -100.4 30.36 -99.81 30.19 C-99.48 29.2 -99.15 28.21 -98.81 27.19 C-97.09 26.08 -97.09 26.08 -94.75 25 C-91.45 23.44 -88.18 21.87 -84.94 20.19 C-77.67 16.43 -70.77 13.24 -62.81 11.19 C-61.29 10.7 -59.77 10.2 -58.25 9.69 C-57.51 9.44 -56.77 9.2 -56.01 8.94 C-54.57 8.45 -53.13 7.93 -51.71 7.4 C-46.03 5.34 -40.42 4.41 -34.44 3.62 C-31.89 3.46 -31.89 3.46 -30.81 2.19 C-20.63 0.1 -10.36 0 0 0 Z M-18.81 59.19 C-20.18 59.37 -21.56 59.51 -22.94 59.62 C-27.08 60.04 -30.83 60.93 -34.81 62.19 C-35.86 62.48 -36.92 62.76 -38 63.06 C-49.22 66.33 -49.22 66.33 -59.81 71.19 C-60.5 71.56 -61.18 71.93 -61.89 72.31 C-66.98 75.09 -71.92 78.06 -76.81 81.19 C-77.76 81.76 -78.71 82.34 -79.69 82.94 C-87.83 88.8 -94.86 96.1 -102 103.12 C-102.76 103.86 -103.52 104.6 -104.3 105.36 C-109.53 110.56 -113.79 116.02 -117.81 122.19 C-118.52 123.27 -118.52 123.27 -119.24 124.36 C-120.54 126.36 -121.8 128.36 -123.06 130.38 C-123.48 131.03 -123.9 131.69 -124.34 132.37 C-126.94 136.53 -128.97 140.64 -130.81 145.19 C-131.5 146.71 -132.18 148.23 -132.88 149.75 C-134.4 153.18 -135.69 156.6 -136.81 160.19 C-137.17 161.15 -137.17 161.15 -137.53 162.13 C-139.5 167.62 -140.55 173.01 -141.38 178.78 C-141.81 181.19 -141.81 181.19 -142.81 182.19 C-143.02 183.52 -143.18 184.85 -143.31 186.19 C-143.7 190.08 -143.7 190.08 -144.81 191.19 C-144.91 194.28 -144.95 197.35 -144.95 200.44 C-144.95 201.37 -144.95 202.29 -144.95 203.25 C-144.95 205.22 -144.95 207.19 -144.94 209.15 C-144.94 212.17 -144.94 215.2 -144.95 218.22 C-144.95 220.13 -144.95 222.03 -144.95 223.94 C-144.95 224.85 -144.95 225.76 -144.95 226.7 C-145.35 230.76 -145.35 230.76 -143.81 234.19 C-143.63 235.56 -143.49 236.93 -143.38 238.31 C-142.96 242.46 -142.07 246.2 -140.81 250.19 C-140.52 251.22 -140.24 252.25 -139.94 253.31 C-139.56 254.6 -139.19 255.9 -138.81 257.19 C-138.52 258.19 -138.24 259.2 -137.94 260.24 C-136.06 266.61 -133.95 272.33 -130.81 278.19 C-130.14 279.85 -129.47 281.52 -128.81 283.19 C-124.52 292.13 -119.23 300.65 -113.12 308.46 C-111.84 310.16 -110.7 311.89 -109.56 313.69 C-108.99 314.51 -108.41 315.34 -107.81 316.19 C-107.15 316.19 -106.49 316.19 -105.81 316.19 C-105.81 316.85 -105.81 317.51 -105.81 318.19 C-105.15 318.19 -104.49 318.19 -103.81 318.19 C-103.58 318.75 -103.34 319.31 -103.09 319.89 C-101.52 322.71 -99.6 324.67 -97.31 326.94 C-96.52 327.74 -95.72 328.54 -94.91 329.36 C-93.02 331.41 -93.02 331.41 -90.81 331.19 C-90.32 332.67 -90.32 332.67 -89.81 334.19 C-88.19 335.25 -86.51 336.23 -84.81 337.19 C-83.41 338.12 -82.02 339.05 -80.62 340 C-59.83 354.29 -59.83 354.29 -35.81 359.19 C-35.81 359.85 -35.81 360.51 -35.81 361.19 C-25.48 364.63 -14.55 364.4 -3.76 364.43 C-1.65 364.44 0.47 364.47 2.59 364.5 C14.53 364.59 25.84 363.13 37.19 359.19 C38.13 358.94 39.08 358.69 40.05 358.43 C49.06 356.01 56.5 351.94 64.44 347.21 C66.63 345.93 68.87 344.74 71.12 343.56 C75.87 340.93 80.02 337.64 84.19 334.19 C84.82 333.67 85.46 333.14 86.11 332.61 C90.4 328.96 94.43 325.07 98.44 321.12 C98.95 320.63 99.45 320.14 99.98 319.63 C103.22 316.39 105.67 313.03 108.19 309.19 C109.16 308.25 109.16 308.25 110.14 307.29 C112.97 304.39 114.84 301.1 116.88 297.62 C117.28 296.95 117.68 296.28 118.1 295.59 C119.74 292.82 121.17 290.25 122.19 287.19 C122.67 286.71 123.16 286.24 123.66 285.75 C125.43 283.94 125.87 282.66 126.56 280.25 C127.72 276.5 129.11 272.97 130.69 269.38 C132.86 264.26 134.32 259.2 135.57 253.79 C136.19 251.19 136.19 251.19 137.25 248.12 C139.81 240.1 140.5 231.99 140.49 223.61 C140.49 222.65 140.5 221.68 140.5 220.68 C140.51 218.65 140.51 216.62 140.5 214.58 C140.5 211.52 140.52 208.47 140.55 205.41 C140.59 191.76 139.7 179.18 135.19 166.19 C134.72 164.58 134.27 162.98 133.81 161.38 C132.34 156.43 130.37 151.86 128.19 147.19 C127.52 145.67 126.85 144.15 126.19 142.62 C124.32 138.41 122.28 134.29 120.19 130.19 C119.52 128.85 118.85 127.52 118.19 126.19 C117.53 126.19 116.87 126.19 116.19 126.19 C115.94 125.49 115.69 124.78 115.44 124.06 C111.85 115.82 105.31 109.6 99.19 103.19 C98.3 102.25 98.3 102.25 97.39 101.3 C87.77 91.29 78.37 83.01 66.19 76.19 C65.6 75.86 65.02 75.53 64.42 75.18 C56.23 70.58 48.27 66.77 39.19 64.19 C37.93 63.82 36.67 63.44 35.38 63.06 C34.32 62.77 33.27 62.49 32.19 62.19 C31.07 61.84 29.96 61.49 28.81 61.12 C25.18 60.18 21.74 59.74 18.01 59.43 C16.19 59.19 16.19 59.19 15.19 58.19 C12.75 58.09 10.34 58.05 7.91 58.05 C7.18 58.05 6.45 58.05 5.7 58.05 C4.15 58.05 2.61 58.05 1.07 58.06 C-1.3 58.06 -3.67 58.06 -6.04 58.05 C-7.54 58.05 -9.04 58.05 -10.53 58.05 C-11.24 58.05 -11.96 58.05 -12.69 58.05 C-16.04 57.77 -16.04 57.77 -18.81 59.19 Z M-314.81 668.19 C-313.81 671.19 -313.81 671.19 -313.81 671.19 Z " fill="#EE6443" transform="translate(503.8125,287.8125)"/>
<path d="M0 0 C0.33 0 0.66 0 1 0 C1 7.59 1 15.18 1 23 C0.67 23 0.34 23 0 23 C0 15.41 0 7.82 0 0 Z " fill="#000000" transform="translate(242,966)"/>
<path d="M0 0 C0.33 0 0.66 0 1 0 C1 5.61 1 11.22 1 17 C0.67 17 0.34 17 0 17 C0 11.39 0 5.78 0 0 Z " fill="#000000" transform="translate(816,972)"/>
<path d="M0 0 C0.66 0.33 1.32 0.66 2 1 C-0.97 3.48 -0.97 3.48 -4 6 C-2.85 3.53 -1.95 1.95 0 0 Z " fill="#AD4931" transform="translate(640,647)"/>
<path d="M0 0 C0.33 0 0.66 0 1 0 C1 3.63 1 7.26 1 11 C0.67 11 0.34 11 0 11 C0 7.37 0 3.74 0 0 Z " fill="#000000" transform="translate(360,479)"/>
<path d="M0 0 C0.33 0 0.66 0 1 0 C1 3.3 1 6.6 1 10 C0.67 10 0.34 10 0 10 C0 6.7 0 3.4 0 0 Z " fill="#000000" transform="translate(360,511)"/>
<path d="M0 0 C3.3 0 6.6 0 10 0 C10 0.33 10 0.66 10 1 C6.7 1 3.4 1 0 1 C0 0.67 0 0.34 0 0 Z " fill="#000000" transform="translate(486,347)"/>
<path d="M0 0 C0.33 0 0.66 0 1 0 C1 2.97 1 5.94 1 9 C0.67 9 0.34 9 0 9 C0 6.03 0 3.06 0 0 Z " fill="#000000" transform="translate(814,945)"/>
<path d="M0 0 C2.97 0 5.94 0 9 0 C9 0.33 9 0.66 9 1 C6.03 1 3.06 1 0 1 C0 0.67 0 0.34 0 0 Z " fill="#000000" transform="translate(510,347)"/>
<path d="M0 0 C2.64 0 5.28 0 8 0 C8 0.33 8 0.66 8 1 C5.36 1 2.72 1 0 1 C0 0.67 0 0.34 0 0 Z " fill="#000000" transform="translate(516,711)"/>
<path d="M0 0 C2.64 0 5.28 0 8 0 C8 0.33 8 0.66 8 1 C5.36 1 2.72 1 0 1 C0 0.67 0 0.34 0 0 Z " fill="#000000" transform="translate(481,711)"/>
<path d="M0 0 C0.33 0 0.66 0 1 0 C1 2.64 1 5.28 1 8 C0.67 8 0.34 8 0 8 C0 5.36 0 2.72 0 0 Z " fill="#000000" transform="translate(698,515)"/>
<path d="M0 0 C0.33 0 0.66 0 1 0 C1 2.64 1 5.28 1 8 C0.67 8 0.34 8 0 8 C0 5.36 0 2.72 0 0 Z " fill="#000000" transform="translate(698,477)"/>
<path d="M0 0 C0.33 0 0.66 0 1 0 C1 1.98 1 3.96 1 6 C0.67 6 0.34 6 0 6 C0 4.02 0 2.04 0 0 Z " fill="#000000" transform="translate(696,462)"/>
<path d="M0 0 C0.33 0 0.66 0 1 0 C1 1.65 1 3.3 1 5 C0.67 5 0.34 5 0 5 C0 3.35 0 1.7 0 0 Z " fill="#000000" transform="translate(696,533)"/>
<path d="M0 0 C1 4 1 4 1 4 Z " fill="#000000" transform="translate(811,926)"/>
<path d="M0 0 C1 4 1 4 1 4 Z " fill="#000000" transform="translate(806,902)"/>
<path d="M0 0 C4 1 4 1 4 1 Z " fill="#000000" transform="translate(543,714)"/>
<path d="M0 0 C4 1 4 1 4 1 Z " fill="#000000" transform="translate(458,714)"/>
<path d="" fill="#000000" transform="translate(0,0)"/>
<path d="" fill="#000000" transform="translate(0,0)"/>
<path d="M0 0 C3 1 3 1 3 1 Z " fill="#000000" transform="translate(444,717)"/>
<path d="M0 0 C3 1 3 1 3 1 Z " fill="#000000" transform="translate(463,352)"/>
<path d="" fill="#000000" transform="translate(0,0)"/>
<path d="M0 0 C2 1 2 1 2 1 Z " fill="#000000" transform="translate(566,719)"/>
<path d="M0 0 C2 1 2 1 2 1 Z " fill="#000000" transform="translate(437,719)"/>
<path d="M0 0 C2 1 2 1 2 1 Z " fill="#000000" transform="translate(559,717)"/>
<path d="" fill="#000000" transform="translate(0,0)"/>
<path d="" fill="#000000" transform="translate(0,0)"/>
<path d="" fill="#000000" transform="translate(0,0)"/>
<path d="" fill="#000000" transform="translate(0,0)"/>
<path d="" fill="#000000" transform="translate(0,0)"/>
<path d="M0 0 C2 1 2 1 2 1 Z " fill="#000000" transform="translate(540,352)"/>
<path d="" fill="#000000" transform="translate(0,0)"/>
<path d="" fill="#000000" transform="translate(0,0)"/>
<path d="" fill="#000000" transform="translate(0,0)"/>
<path d="" fill="#000000" transform="translate(0,0)"/>
<path d="" fill="#000000" transform="translate(0,0)"/>
<path d="" fill="#000000" transform="translate(0,0)"/>
<path d="" fill="#000000" transform="translate(0,0)"/>
<path d="" fill="#000000" transform="translate(0,0)"/>
<path d="" fill="#000000" transform="translate(0,0)"/>
<path d="" fill="#000000" transform="translate(0,0)"/>
<path d="" fill="#000000" transform="translate(0,0)"/>
<path d="" fill="#000000" transform="translate(0,0)"/>
<path d="" fill="#000000" transform="translate(0,0)"/>
<path d="" fill="#000000" transform="translate(0,0)"/>
<path d="" fill="#000000" transform="translate(0,0)"/>
<path d="" fill="#000000" transform="translate(0,0)"/>
<path d="" fill="#000000" transform="translate(0,0)"/>
<path d="" fill="#000000" transform="translate(0,0)"/>
<path d="" fill="#000000" transform="translate(0,0)"/>
<path d="" fill="#000000" transform="translate(0,0)"/>
<path d="" fill="#000000" transform="translate(0,0)"/>
<path d="" fill="#000000" transform="translate(0,0)"/>
<path d="" fill="#000000" transform="translate(0,0)"/>
<path d="" fill="#000000" transform="translate(0,0)"/>
<path d="" fill="#000000" transform="translate(0,0)"/>
</svg>
