<?xml version="1.0" encoding="UTF-8"?>
<!-- Generator: visioncortex VTracer 0.6.3 -->
<svg version="1.1" xmlns="http://www.w3.org/2000/svg" width="989" height="1280">
<path d="M0 0 C0.94 -0 1.88 -0.01 2.84 -0.01 C3.86 -0.01 4.88 -0.01 5.93 -0 C7.49 -0 7.49 -0 9.08 -0.01 C11.28 -0.01 13.49 -0.01 15.69 -0 C19.07 0 22.46 -0 25.84 -0.01 C27.98 -0.01 30.11 -0.01 32.24 -0 C33.26 -0.01 34.28 -0.01 35.33 -0.01 C36.74 -0 36.74 -0 38.18 0 C39.42 0 39.42 0 40.69 0 C42.59 0.13 42.59 0.13 43.59 1.13 C46.11 1.46 48.62 1.74 51.15 2 C57.11 2.68 62.03 3.79 67.59 6.13 C68.94 6.4 70.29 6.65 71.65 6.88 C78.11 8.19 83.9 11.4 89.78 14.28 C91.51 15.09 93.28 15.84 95.04 16.57 C99.07 18.34 102.84 20.39 106.65 22.57 C107.33 22.95 108.01 23.33 108.71 23.73 C112.79 26.03 116.71 28.5 120.59 31.13 C121.47 31.65 122.36 32.16 123.28 32.69 C125.44 34.04 126.82 35.33 128.59 37.13 C129.91 38.33 131.25 39.51 132.59 40.69 C133.27 41.29 133.95 41.89 134.65 42.51 C136.7 44.28 136.7 44.28 139.59 46.13 C139.59 46.79 139.59 47.45 139.59 48.13 C140.42 48.22 140.42 48.22 141.28 48.32 C144.58 49.48 146.31 51.53 148.59 54.13 C148.59 54.79 148.59 55.45 148.59 56.13 C149.25 56.13 149.91 56.13 150.59 56.13 C151.53 57.55 152.47 58.96 153.37 60.41 C154.69 62.27 156.13 63.74 157.78 65.32 C160.59 68.13 160.59 68.13 161.59 71.13 C162.58 71.79 163.57 72.45 164.59 73.13 C165.78 76.25 165.78 76.25 166.59 79.13 C167.25 79.13 167.91 79.13 168.59 79.13 C169.59 80.92 170.59 82.71 171.59 84.5 C172.42 86 172.42 86 173.28 87.53 C174.59 90.13 174.59 90.13 174.59 92.13 C175.25 92.13 175.91 92.13 176.59 92.13 C180.94 100.45 185.07 108.56 187.8 117.58 C188.6 120.16 189.57 122.63 190.59 125.13 C192.36 130.57 193.27 136 194.12 141.65 C194.33 144.06 194.33 144.06 195.59 145.13 C197.51 152.07 197.88 158.88 197.85 166.04 C197.86 167.04 197.86 168.05 197.86 169.08 C197.86 171.19 197.86 173.3 197.85 175.42 C197.84 178.62 197.85 181.83 197.86 185.03 C197.86 187.1 197.86 189.16 197.85 191.22 C197.86 192.17 197.86 193.11 197.87 194.09 C197.76 209.96 197.76 209.96 194.59 213.13 C194.65 214.65 194.65 214.65 194.71 216.19 C194.57 220.77 193.32 223.96 191.59 228.13 C190.68 230.8 189.8 233.47 188.94 236.15 C188.18 238.48 187.39 240.81 186.59 243.13 C186.35 243.83 186.11 244.54 185.86 245.26 C179.24 263.09 168.88 279.74 156.59 294.13 C156.01 294.82 155.44 295.5 154.85 296.21 C148.19 304.02 141.21 311.52 132.59 317.13 C130.48 318.91 128.45 320.77 126.42 322.64 C124.59 324.13 124.59 324.13 121.59 325.13 C121.26 326.12 120.93 327.11 120.59 328.13 C121.39 328.21 122.19 328.3 123.02 328.39 C127.56 329.33 131.45 331.08 135.65 333 C136.44 333.36 137.23 333.71 138.04 334.07 C142.06 335.88 145.83 337.82 149.59 340.13 C151.78 340.83 151.78 340.83 153.59 341.13 C153.59 341.79 153.59 342.45 153.59 343.13 C154.17 343.25 154.76 343.37 155.36 343.49 C157.66 344.15 159.26 345.01 161.27 346.31 C161.95 346.74 162.63 347.18 163.33 347.63 C164.04 348.08 164.74 348.54 165.46 349 C170.08 351.97 174.62 354.77 179.59 357.13 C180.25 357.46 180.91 357.79 181.59 358.13 C181.59 358.79 181.59 359.45 181.59 360.13 C182.31 360.38 183.03 360.62 183.78 360.88 C186.87 362.26 189.01 363.94 191.59 366.13 C194.91 368.9 194.91 368.9 198.59 371.13 C198.59 371.79 198.59 372.45 198.59 373.13 C199.19 373.4 199.78 373.67 200.4 373.94 C202.6 375.14 203.83 376.38 205.59 378.13 C206.45 378.62 207.32 379.12 208.21 379.63 C210.59 381.13 210.59 381.13 211.59 384.13 C212.91 384.82 214.25 385.48 215.59 386.13 C217.1 387.46 218.57 388.85 219.99 390.27 C220.82 391.09 221.65 391.92 222.5 392.77 C223.35 393.63 224.21 394.49 225.09 395.38 C225.94 396.23 226.8 397.07 227.68 397.95 C231.85 402.13 235.49 406.11 238.59 411.13 C240.41 413.27 242.29 415.33 244.2 417.4 C245.59 419.13 245.59 419.13 245.59 421.13 C246.58 421.46 247.57 421.79 248.59 422.13 C249.65 423.76 250.64 425.43 251.59 427.13 C252.84 428.89 254.11 430.64 255.4 432.38 C261.37 440.57 266.48 448.65 270.92 457.76 C272.32 460.58 273.78 463.33 275.34 466.07 C277.37 469.65 278.97 473.33 280.59 477.13 C281.55 478.71 281.55 478.71 282.53 480.32 C284.93 484.39 286.25 488.77 287.66 493.26 C288.25 495.09 288.9 496.9 289.61 498.69 C290.59 501.12 291.36 503.55 292.09 506.07 C292.88 508.75 293.68 511.41 294.59 514.07 C297.1 521.75 298.81 529.09 299.59 537.13 C299.92 537.46 300.25 537.79 300.59 538.13 C300.92 540.46 301.25 542.8 301.59 545.13 C301.92 545.46 302.25 545.79 302.59 546.13 C302.8 547.89 302.96 549.67 303.09 551.44 C303.21 553.05 303.21 553.05 303.34 554.7 C303.5 556.99 303.67 559.27 303.84 561.56 C303.96 563.17 303.96 563.17 304.09 564.82 C304.16 565.81 304.23 566.8 304.31 567.83 C304.34 570.09 304.34 570.09 305.59 571.13 C305.68 572.57 305.71 574.02 305.7 575.47 C305.7 576.39 305.7 577.31 305.7 578.26 C305.7 579.26 305.69 580.26 305.69 581.29 C305.68 582.31 305.68 583.33 305.68 584.38 C305.68 587.65 305.66 590.92 305.65 594.19 C305.65 596.4 305.64 598.62 305.64 600.83 C305.63 606.26 305.61 611.7 305.59 617.13 C250.88 617.15 196.17 617.16 141.46 617.17 C140.65 617.17 139.84 617.17 139.01 617.17 C121.43 617.18 103.85 617.18 86.27 617.18 C77.65 617.18 69.02 617.18 60.4 617.18 C59.55 617.18 58.69 617.18 57.8 617.18 C29.97 617.19 2.14 617.2 -25.7 617.21 C-54.29 617.22 -82.87 617.22 -111.46 617.22 C-115.5 617.22 -119.53 617.22 -123.56 617.22 C-124.76 617.22 -124.76 617.22 -125.97 617.22 C-138.78 617.23 -151.58 617.23 -164.39 617.24 C-177.24 617.24 -190.1 617.24 -202.96 617.24 C-210.61 617.24 -218.26 617.24 -225.91 617.25 C-231.6 617.25 -237.3 617.25 -243 617.25 C-245.31 617.25 -247.63 617.25 -249.95 617.25 C-253.07 617.26 -256.2 617.26 -259.32 617.25 C-260.24 617.26 -261.16 617.26 -262.11 617.26 C-268.3 617.24 -268.3 617.24 -269.41 616.13 C-269.51 614.79 -269.54 613.44 -269.54 612.1 C-269.54 611.25 -269.55 610.39 -269.55 609.51 C-269.55 608.58 -269.55 607.65 -269.54 606.7 C-269.55 605.75 -269.55 604.8 -269.55 603.82 C-269.55 601.81 -269.55 599.8 -269.54 597.79 C-269.54 594.71 -269.54 591.63 -269.55 588.54 C-269.55 586.59 -269.55 584.64 -269.54 582.7 C-269.55 581.77 -269.55 580.84 -269.55 579.89 C-269.55 578.6 -269.55 578.6 -269.54 577.29 C-269.54 576.53 -269.54 575.77 -269.54 575 C-269.41 573.13 -269.41 573.13 -268.41 571.13 C-268.21 569.42 -268.07 567.71 -267.95 566 C-267.87 564.96 -267.79 563.93 -267.71 562.86 C-267.56 560.69 -267.4 558.52 -267.25 556.35 C-265.99 539.7 -265.99 539.7 -263.41 537.13 C-262.87 533.9 -262.45 530.67 -262.01 527.43 C-261.46 524.37 -260.61 521.98 -259.41 519.13 C-258.38 515.67 -257.43 512.19 -256.48 508.7 C-254.83 502.66 -253.09 496.9 -250.39 491.24 C-249.38 489.07 -248.56 486.87 -247.72 484.63 C-245.2 478.23 -241.85 472.26 -238.6 466.21 C-236.85 462.96 -235.17 459.69 -233.54 456.38 C-230.8 450.85 -227.55 445.79 -224.1 440.68 C-221.64 436.96 -219.33 433.14 -217.03 429.32 C-215.41 427.13 -215.41 427.13 -212.41 426.13 C-212.14 425.45 -211.88 424.77 -211.6 424.07 C-209.21 418.15 -204.88 413.59 -200.41 409.13 C-199.99 408.38 -199.56 407.63 -199.12 406.85 C-197.16 403.72 -194.91 401.37 -192.3 398.75 C-191.81 398.26 -191.31 397.76 -190.81 397.25 C-189.77 396.22 -188.73 395.18 -187.69 394.15 C-186.11 392.58 -184.54 390.99 -182.97 389.41 C-181.95 388.4 -180.94 387.39 -179.92 386.38 C-179.01 385.46 -178.1 384.55 -177.16 383.62 C-174.39 381.11 -171.55 379.14 -168.41 377.13 C-167.01 375.99 -165.62 374.85 -164.24 373.68 C-152.13 363.41 -152.13 363.41 -145.41 359.13 C-144.31 358.32 -143.2 357.51 -142.1 356.69 C-138.76 354.29 -135.26 352.32 -131.64 350.37 C-129.64 349.26 -127.76 348.07 -125.85 346.82 C-119.94 343.06 -113.56 340.13 -107.28 337.05 C-104.87 335.86 -102.49 334.62 -100.1 333.38 C-95.04 330.84 -89.77 328.95 -84.41 327.13 C-87.05 323.64 -89.69 320.92 -93.16 318.25 C-100.41 312.57 -107.11 306.54 -113.66 300.07 C-114.57 299.18 -114.57 299.18 -115.49 298.28 C-118.98 294.79 -121.91 291.39 -124.41 287.13 C-124.41 286.47 -124.41 285.81 -124.41 285.13 C-125.07 285.13 -125.73 285.13 -126.41 285.13 C-127.74 283.44 -127.74 283.44 -129.22 281.13 C-129.75 280.31 -130.27 279.5 -130.81 278.66 C-131.34 277.82 -131.87 276.99 -132.41 276.13 C-132.91 275.37 -133.4 274.61 -133.92 273.82 C-137.41 268.39 -137.41 268.39 -137.41 266.13 C-138.07 266.13 -138.73 266.13 -139.41 266.13 C-139.41 264.81 -139.41 263.49 -139.41 262.13 C-140.07 262.13 -140.73 262.13 -141.41 262.13 C-141.74 261.33 -142.06 260.54 -142.4 259.72 C-142.84 258.66 -143.27 257.6 -143.72 256.5 C-144.15 255.46 -144.58 254.42 -145.03 253.34 C-145.93 251.24 -146.91 249.17 -147.96 247.13 C-149.46 244.02 -150.46 241.01 -151.41 237.69 C-152.45 234.2 -153.49 230.96 -154.97 227.63 C-157.16 222.3 -158.32 216.78 -159.41 211.13 C-159.67 209.85 -159.67 209.85 -159.94 208.55 C-161.68 198.95 -161.72 189.47 -161.67 179.75 C-161.66 176.94 -161.67 174.12 -161.69 171.3 C-161.68 169.48 -161.68 167.66 -161.68 165.84 C-161.68 165.01 -161.69 164.18 -161.69 163.33 C-161.57 148.29 -161.57 148.29 -158.41 145.13 C-157.87 142.23 -157.45 139.32 -157.01 136.4 C-154.1 120.49 -147.38 103.59 -138.41 90.13 C-137.75 90.13 -137.09 90.13 -136.41 90.13 C-136.33 89.45 -136.25 88.77 -136.16 88.07 C-134.86 82.98 -132.3 78.69 -128.41 75.13 C-126.42 72.77 -124.63 70.5 -123.1 67.82 C-121.11 64.65 -118.79 62.02 -116.3 59.24 C-115.07 57.87 -113.86 56.47 -112.68 55.05 C-109.25 50.94 -105.77 47.67 -101.4 44.58 C-98.73 42.63 -96.3 40.45 -93.86 38.23 C-92.41 37.13 -92.41 37.13 -90.41 37.13 C-90.41 36.47 -90.41 35.81 -90.41 35.13 C-88.32 33.62 -86.23 32.24 -84.04 30.88 C-83.4 30.48 -82.76 30.08 -82.1 29.66 C-80.21 28.48 -78.31 27.3 -76.41 26.13 C-75.47 25.55 -74.54 24.97 -73.57 24.38 C-71.2 22.94 -68.81 21.53 -66.41 20.13 C-65.28 19.45 -65.28 19.45 -64.12 18.76 C-59.8 16.25 -55.64 14.4 -50.87 12.95 C-47.93 11.97 -45.13 10.74 -42.29 9.5 C-37.92 7.65 -34.14 6.67 -29.41 6.13 C-27.71 5.42 -27.71 5.42 -25.97 4.69 C-21.09 2.71 -15.99 2.32 -10.78 1.78 C-6.75 1.35 -3.99 0 0 0 Z M2.59 49.13 C-1.06 49.64 -4.72 50.03 -8.38 50.43 C-12.67 51.05 -16.42 52.52 -20.41 54.13 C-21.68 54.59 -22.96 55.04 -24.24 55.49 C-36.02 59.7 -46.64 65.31 -57.29 71.87 C-59.41 73.13 -59.41 73.13 -61.56 74.05 C-63.89 75.41 -64.28 76.72 -65.41 79.13 C-67.08 80.77 -67.08 80.77 -69.04 82.38 C-73.4 86.08 -77.45 90 -81.41 94.13 C-82.02 94.76 -82.63 95.38 -83.26 96.03 C-87.41 100.5 -90.27 105.19 -93.08 110.6 C-94.41 113.13 -94.41 113.13 -96.47 116.19 C-100.64 122.51 -103.57 128.68 -104.96 136.13 C-105.41 138.13 -105.41 138.13 -106.85 140.88 C-110.47 148.41 -111.64 157.02 -112.2 165.3 C-112.41 167.13 -112.41 167.13 -113.41 168.13 C-113.51 169.68 -113.54 171.23 -113.54 172.79 C-113.55 173.73 -113.55 174.67 -113.55 175.63 C-113.54 176.62 -113.54 177.61 -113.54 178.63 C-113.54 179.62 -113.54 180.61 -113.55 181.63 C-113.55 182.57 -113.55 183.5 -113.54 184.47 C-113.54 185.34 -113.54 186.21 -113.54 187.1 C-113.64 189.13 -113.64 189.13 -112.41 190.13 C-112.23 191.65 -112.09 193.17 -111.97 194.69 C-111.68 198 -111.26 201.11 -110.41 204.32 C-109.41 208.13 -109.41 208.13 -108.97 211.75 C-108.37 215.38 -107.1 217.89 -105.41 221.13 C-105.23 222.22 -105.23 222.22 -105.05 223.33 C-104.19 227.12 -102.49 230.38 -100.72 233.82 C-100.37 234.52 -100.01 235.22 -99.64 235.95 C-95.48 244.32 -95.48 244.32 -90.41 252.13 C-89.75 252.13 -89.09 252.13 -88.41 252.13 C-87.92 254.11 -87.92 254.11 -87.41 256.13 C-86.75 256.13 -86.09 256.13 -85.41 256.13 C-85.23 256.8 -85.04 257.48 -84.85 258.17 C-82.8 262.38 -79.74 265.2 -76.41 268.44 C-75.45 269.41 -75.45 269.41 -74.47 270.4 C-71.46 273.87 -71.46 273.87 -67.41 275.13 C-67.16 275.73 -66.92 276.33 -66.66 276.94 C-65.23 279.45 -63.84 280.61 -61.41 282.13 C-60.75 282.13 -60.09 282.13 -59.41 282.13 C-59.08 283.12 -58.75 284.11 -58.41 285.13 C-56.41 286.55 -56.41 286.55 -53.85 287.82 C-52.86 288.33 -51.87 288.85 -50.85 289.38 C-49.72 289.96 -48.58 290.53 -47.41 291.13 C-46.09 291.82 -44.76 292.5 -43.44 293.19 C-36.59 296.72 -29.88 300.12 -22.41 302.13 C-20.95 302.53 -20.95 302.53 -19.46 302.93 C-17.51 303.46 -15.56 303.98 -13.6 304.48 C-11.41 305.13 -11.41 305.13 -10.41 306.13 C-1.49 307.42 7.46 307.28 16.46 307.26 C19.08 307.25 21.71 307.26 24.33 307.27 C39.96 307.68 39.96 307.68 54.59 303.13 C57.12 302.57 59.65 302.14 62.22 301.75 C64.92 301.04 66.41 299.84 68.59 298.13 C70.23 297.7 71.88 297.28 73.53 296.86 C77.03 295.62 80.04 293.56 83.16 291.57 C85.59 290.13 85.59 290.13 88.33 289.07 C90.75 288.35 90.75 288.35 91.59 286.13 C93.99 284.59 96.41 283.22 98.96 281.94 C102.01 279.84 104 277.46 106.36 274.64 C109.17 271.48 112.19 268.57 115.21 265.63 C119.83 261.11 123.42 256.81 126.59 251.13 C127.25 250.8 127.91 250.47 128.59 250.13 C128.59 248.81 128.59 247.49 128.59 246.13 C129.58 245.8 130.57 245.47 131.59 245.13 C133.15 242.62 133.15 242.62 134.53 239.57 C135.05 238.48 135.57 237.39 136.1 236.26 C136.59 235.23 137.08 234.19 137.59 233.13 C138.31 231.73 139.04 230.34 139.78 228.94 C145.23 217.95 147.71 205.57 148.38 193.4 C148.59 191.13 148.59 191.13 149.59 190.13 C149.69 188.43 149.72 186.73 149.72 185.04 C149.72 183.49 149.72 183.49 149.72 181.91 C149.72 180.83 149.72 179.75 149.71 178.63 C149.72 177.55 149.72 176.46 149.72 175.34 C149.72 174.31 149.72 173.28 149.72 172.22 C149.72 171.27 149.72 170.32 149.72 169.34 C149.83 167.15 149.83 167.15 148.59 166.13 C148.26 163.46 147.98 160.8 147.71 158.13 C147.01 151.73 145.93 146.14 143.59 140.13 C143.16 138.84 142.73 137.56 142.31 136.27 C139.22 126.96 135.57 118.61 130.59 110.13 C129.74 108.63 129.74 108.63 128.88 107.11 C126.86 103.54 126.86 103.54 124.59 100.13 C123.93 100.13 123.27 100.13 122.59 100.13 C122.26 99.14 121.93 98.15 121.59 97.13 C120.93 96.47 120.27 95.81 119.59 95.13 C118.71 94.09 117.83 93.05 116.96 92 C114.54 89.18 112.05 86.44 109.46 83.75 C108.82 83.09 108.18 82.42 107.52 81.73 C105.49 80.05 104.16 79.53 101.59 79.13 C101.59 78.47 101.59 77.81 101.59 77.13 C83.05 61.69 59.58 51.49 35.59 49.13 C35.26 48.8 34.93 48.47 34.59 48.13 C32.31 48.03 30.03 48 27.74 48 C27.06 48 26.38 47.99 25.67 47.99 C24.22 47.99 22.77 47.99 21.32 48 C19.1 48 16.87 48 14.65 47.99 C13.24 47.99 11.84 47.99 10.43 48 C9.14 48 7.86 48 6.53 48 C3.7 47.79 3.7 47.79 2.59 49.13 Z M-19.35 359.57 C-23.61 360.72 -27.78 361.53 -32.16 362.13 C-36.58 362.76 -40.36 363.68 -44.46 365.41 C-46.74 366.25 -48.96 366.65 -51.35 367.07 C-56.47 368.02 -60.75 369.87 -65.41 372.13 C-75.9 377 -75.9 377 -80.22 378.5 C-101.38 386.26 -120.95 400.76 -137.65 415.58 C-139.84 417.51 -142.13 419.3 -144.41 421.13 C-149.53 425.26 -153.62 429.51 -157.54 434.78 C-160.82 438.9 -164.63 442.48 -168.41 446.13 C-170.65 448.36 -172.07 450.82 -173.71 453.51 C-176.29 457.49 -179.11 461.3 -181.93 465.12 C-184.3 468.36 -186.02 471.37 -187.41 475.13 C-188.4 476.8 -189.4 478.47 -190.41 480.13 C-191.75 482.67 -193.02 485.24 -194.29 487.82 C-198.19 495.71 -198.19 495.71 -199.83 498.8 C-204.52 507.62 -207.74 517.25 -210.46 526.84 C-211.41 530.13 -211.41 530.13 -212.47 532.65 C-213.63 535.71 -214.04 538.64 -214.47 541.88 C-215.31 548.03 -215.31 548.03 -216.41 549.13 C-218.22 555.06 -220.32 563.32 -217.41 569.13 C-61.32 569.13 94.77 569.13 255.59 569.13 C255.45 561.89 255.45 561.89 253.59 555.13 C253.29 552.86 253.03 550.59 252.78 548.32 C252.02 542.1 250.64 536.37 248.66 530.41 C247.13 525.73 245.89 520.98 244.62 516.22 C243.6 513.17 242.28 510.85 240.59 508.13 C240.06 506.71 239.58 505.27 239.15 503.82 C237.72 499.32 235.77 495.31 233.59 491.13 C232.84 489.59 232.09 488.05 231.34 486.5 C225.27 474.39 218.31 462.85 210.08 452.09 C209.1 450.8 208.13 449.49 207.19 448.17 C203.79 443.42 199.96 439.45 195.77 435.38 C193.12 432.64 190.93 429.71 188.78 426.56 C188.39 426.09 187.99 425.62 187.59 425.13 C186.93 425.13 186.27 425.13 185.59 425.13 C185.26 424.14 184.93 423.15 184.59 422.13 C183.17 421.19 181.75 420.25 180.31 419.35 C178.43 418.02 176.98 416.55 175.4 414.88 C171.75 411.12 167.72 408.16 163.44 405.15 C161.65 403.88 159.88 402.59 158.14 401.27 C146.06 392.11 132.66 383.8 118.59 378.13 C117.41 377.61 116.24 377.1 115.03 376.57 C111.44 375.07 107.83 373.62 104.21 372.19 C102.23 371.39 100.27 370.53 98.33 369.64 C94.24 367.88 90.05 366.94 85.71 366 C77.71 364.25 77.71 364.25 76.59 363.13 C74.66 362.8 72.72 362.52 70.78 362.25 C65.35 361.47 60.19 360.34 54.93 358.81 C44.07 356.59 32.86 356.97 21.82 357 C19.09 357 16.36 357 13.63 356.99 C-3.03 356.73 -3.03 356.73 -19.35 359.57 Z " fill="#4C9843" transform="translate(475.412109375,357.87060546875)"/>
<path d="M0 0 C189.75 0 379.5 0 575 0 C575 0.33 575 0.66 575 1 C385.25 1 195.5 1 0 1 C0 0.67 0 0.34 0 0 Z " fill="#000100" transform="translate(207,976)"/>
<path d="M0 0 C0.33 0 0.66 0 1 0 C1 7.92 1 15.84 1 24 C0.67 24 0.34 24 0 24 C0 16.08 0 8.16 0 0 Z " fill="#000100" transform="translate(782,951)"/>
<path d="M0 0 C0.33 0 0.66 0 1 0 C1 6.93 1 13.86 1 21 C0.67 21 0.34 21 0 21 C0 14.07 0 7.14 0 0 Z " fill="#000100" transform="translate(363,526)"/>
<path d="M0 0 C0.33 0 0.66 0 1 0 C1 3.3 1 6.6 1 10 C0.67 10 0.34 10 0 10 C0 6.7 0 3.4 0 0 Z " fill="#000100" transform="translate(780,918)"/>
<path d="M0 0 C3.3 0 6.6 0 10 0 C10 0.33 10 0.66 10 1 C6.7 1 3.4 1 0 1 C0 0.67 0 0.34 0 0 Z " fill="#000100" transform="translate(500,407)"/>
<path d="M0 0 C3.3 0 6.6 0 10 0 C10 0.33 10 0.66 10 1 C6.7 1 3.4 1 0 1 C0 0.67 0 0.34 0 0 Z " fill="#000100" transform="translate(479,407)"/>
<path d="M0 0 C0.33 0 0.66 0 1 0 C1 2.31 1 4.62 1 7 C0.67 7 0.34 7 0 7 C0 4.69 0 2.38 0 0 Z " fill="#000100" transform="translate(258,916)"/>
<path d="M0 0 C2.31 0 4.62 0 7 0 C7 0.33 7 0.66 7 1 C4.69 1 2.38 1 0 1 C0 0.67 0 0.34 0 0 Z " fill="#000100" transform="translate(520,717)"/>
<path d="M0 0 C2.31 0 4.62 0 7 0 C7 0.33 7 0.66 7 1 C4.69 1 2.38 1 0 1 C0 0.67 0 0.34 0 0 Z " fill="#000100" transform="translate(462,717)"/>
<path d="M0 0 C0 0.99 0 1.98 0 3 C-0.99 3 -1.98 3 -3 3 C-2.01 2.01 -1.02 1.02 0 0 Z " fill="#21421D" transform="translate(414,432)"/>
<path d="M0 0 C0.33 0 0.66 0 1 0 C1 1.65 1 3.3 1 5 C0.67 5 0.34 5 0 5 C0 3.35 0 1.7 0 0 Z " fill="#000100" transform="translate(775,890)"/>
<path d="M0 0 C0.33 0 0.66 0 1 0 C1 1.65 1 3.3 1 5 C0.67 5 0.34 5 0 5 C0 3.35 0 1.7 0 0 Z " fill="#000100" transform="translate(670,571)"/>
<path d="M0 0 C0.33 0 0.66 0 1 0 C1 1.65 1 3.3 1 5 C0.67 5 0.34 5 0 5 C0 3.35 0 1.7 0 0 Z " fill="#000100" transform="translate(670,497)"/>
<path d="M0 0 C1 4 1 4 1 4 Z " fill="#000100" transform="translate(777,899)"/>
<path d="M0 0 C1 4 1 4 1 4 Z " fill="#000100" transform="translate(672,562)"/>
<path d="M0 0 C1 4 1 4 1 4 Z " fill="#000100" transform="translate(672,507)"/>
<path d="M0 0 C4 1 4 1 4 1 Z " fill="#000100" transform="translate(522,410)"/>
<path d="M0 0 C4 1 4 1 4 1 Z " fill="#000100" transform="translate(463,410)"/>
<path d="" fill="#000100" transform="translate(0,0)"/>
<path d="" fill="#000100" transform="translate(0,0)"/>
<path d="" fill="#000100" transform="translate(0,0)"/>
<path d="" fill="#000100" transform="translate(0,0)"/>
<path d="" fill="#000100" transform="translate(0,0)"/>
<path d="M0 0 C3 1 3 1 3 1 Z " fill="#000100" transform="translate(567,727)"/>
<path d="M0 0 C3 1 3 1 3 1 Z " fill="#000100" transform="translate(419,727)"/>
<path d="M0 0 C3 1 3 1 3 1 Z " fill="#000100" transform="translate(549,722)"/>
<path d="M0 0 C3 1 3 1 3 1 Z " fill="#000100" transform="translate(437,722)"/>
<path d="" fill="#000100" transform="translate(0,0)"/>
<path d="" fill="#000100" transform="translate(0,0)"/>
<path d="" fill="#000100" transform="translate(0,0)"/>
<path d="" fill="#000100" transform="translate(0,0)"/>
<path d="" fill="#000100" transform="translate(0,0)"/>
<path d="" fill="#000100" transform="translate(0,0)"/>
<path d="" fill="#000100" transform="translate(0,0)"/>
<path d="" fill="#000100" transform="translate(0,0)"/>
<path d="M0 0 C2 1 2 1 2 1 Z " fill="#000100" transform="translate(595,738)"/>
<path d="M0 0 C2 1 2 1 2 1 Z " fill="#000100" transform="translate(392,738)"/>
<path d="M0 0 C2 1 2 1 2 1 Z " fill="#000100" transform="translate(584,733)"/>
<path d="M0 0 C2 1 2 1 2 1 Z " fill="#000100" transform="translate(561,725)"/>
<path d="M0 0 C2 1 2 1 2 1 Z " fill="#000100" transform="translate(535,719)"/>
<path d="M0 0 C2 1 2 1 2 1 Z " fill="#000100" transform="translate(452,719)"/>
<path d="" fill="#000100" transform="translate(0,0)"/>
<path d="" fill="#000100" transform="translate(0,0)"/>
<path d="" fill="#000100" transform="translate(0,0)"/>
<path d="" fill="#000100" transform="translate(0,0)"/>
<path d="" fill="#000100" transform="translate(0,0)"/>
<path d="" fill="#000100" transform="translate(0,0)"/>
<path d="" fill="#000100" transform="translate(0,0)"/>
<path d="M0 0 C2 1 2 1 2 1 Z " fill="#000100" transform="translate(547,418)"/>
<path d="" fill="#000100" transform="translate(0,0)"/>
<path d="" fill="#000100" transform="translate(0,0)"/>
<path d="" fill="#000100" transform="translate(0,0)"/>
<path d="" fill="#000100" transform="translate(0,0)"/>
<path d="" fill="#000100" transform="translate(0,0)"/>
<path d="" fill="#000100" transform="translate(0,0)"/>
<path d="" fill="#000100" transform="translate(0,0)"/>
<path d="" fill="#000100" transform="translate(0,0)"/>
<path d="" fill="#000100" transform="translate(0,0)"/>
<path d="" fill="#000100" transform="translate(0,0)"/>
<path d="" fill="#000100" transform="translate(0,0)"/>
<path d="" fill="#000100" transform="translate(0,0)"/>
<path d="" fill="#000100" transform="translate(0,0)"/>
<path d="" fill="#000100" transform="translate(0,0)"/>
<path d="" fill="#000100" transform="translate(0,0)"/>
<path d="" fill="#000100" transform="translate(0,0)"/>
<path d="" fill="#000100" transform="translate(0,0)"/>
<path d="" fill="#000100" transform="translate(0,0)"/>
<path d="" fill="#000100" transform="translate(0,0)"/>
<path d="" fill="#000100" transform="translate(0,0)"/>
<path d="" fill="#000100" transform="translate(0,0)"/>
<path d="" fill="#000100" transform="translate(0,0)"/>
<path d="" fill="#000100" transform="translate(0,0)"/>
<path d="" fill="#000100" transform="translate(0,0)"/>
<path d="" fill="#000100" transform="translate(0,0)"/>
<path d="" fill="#000100" transform="translate(0,0)"/>
<path d="" fill="#000100" transform="translate(0,0)"/>
<path d="" fill="#000100" transform="translate(0,0)"/>
<path d="" fill="#000100" transform="translate(0,0)"/>
<path d="" fill="#000100" transform="translate(0,0)"/>
<path d="" fill="#000100" transform="translate(0,0)"/>
<path d="" fill="#000100" transform="translate(0,0)"/>
<path d="" fill="#000100" transform="translate(0,0)"/>
<path d="" fill="#000100" transform="translate(0,0)"/>
<path d="" fill="#000100" transform="translate(0,0)"/>
<path d="" fill="#000100" transform="translate(0,0)"/>
<path d="" fill="#000100" transform="translate(0,0)"/>
<path d="" fill="#000100" transform="translate(0,0)"/>
<path d="" fill="#000100" transform="translate(0,0)"/>
<path d="" fill="#000100" transform="translate(0,0)"/>
<path d="" fill="#000100" transform="translate(0,0)"/>
<path d="" fill="#000100" transform="translate(0,0)"/>
<path d="" fill="#000100" transform="translate(0,0)"/>
<path d="" fill="#000100" transform="translate(0,0)"/>
<path d="" fill="#000100" transform="translate(0,0)"/>
<path d="" fill="#000100" transform="translate(0,0)"/>
<path d="" fill="#000100" transform="translate(0,0)"/>
<path d="" fill="#000100" transform="translate(0,0)"/>
<path d="" fill="#000100" transform="translate(0,0)"/>
</svg>
